<svg width="358" height="358" viewBox="0 0 358 358" fill="none" xmlns="http://www.w3.org/2000/svg">
<path d="M71.3701 164.766L73.1133 171H79.1836L69.5859 141.141H64.3564L54.5742 171H60.6445L62.4082 164.766H71.3701ZM63.8232 159.864L66.9609 148.872L70.0166 159.864H63.8232ZM101.804 141.141H96.082L96.0615 160.931C96.0479 161.901 95.9453 162.756 95.7539 163.494C95.5625 164.232 95.2754 164.848 94.8926 165.34C94.5371 165.818 94.0859 166.181 93.5391 166.427C93.0059 166.659 92.3906 166.775 91.6934 166.775C91.0508 166.775 90.4834 166.666 89.9912 166.447C89.499 166.215 89.082 165.873 88.7402 165.422C88.3711 164.93 88.0908 164.308 87.8994 163.556C87.7217 162.804 87.626 161.929 87.6123 160.931L87.5918 141.141H81.8291L81.8086 160.931C81.8086 162.599 82.041 164.089 82.5059 165.401C82.9844 166.7 83.6543 167.794 84.5156 168.683C85.377 169.571 86.4092 170.248 87.6123 170.713C88.8291 171.178 90.1895 171.41 91.6934 171.41C93.293 171.41 94.7148 171.178 95.959 170.713C97.2168 170.248 98.2832 169.564 99.1582 168.662C100.02 167.773 100.676 166.68 101.127 165.381C101.592 164.082 101.824 162.599 101.824 160.931L101.804 141.141ZM129.079 145.837V141.141H105.003V145.837H114.088V171H119.871V145.837H129.079ZM153.196 158.265V153.917C153.196 152.563 153.066 151.285 152.807 150.082C152.561 148.879 152.198 147.771 151.72 146.76C151.282 145.871 150.756 145.058 150.141 144.319C149.539 143.581 148.835 142.952 148.028 142.433C147.222 141.886 146.312 141.469 145.301 141.182C144.303 140.881 143.229 140.73 142.081 140.73C140.946 140.73 139.894 140.874 138.923 141.161C137.952 141.448 137.077 141.858 136.298 142.392C135.505 142.938 134.801 143.595 134.186 144.36C133.584 145.126 133.071 145.98 132.647 146.924C132.21 147.922 131.875 149.009 131.643 150.185C131.424 151.36 131.314 152.604 131.314 153.917V158.265C131.314 159.495 131.41 160.664 131.602 161.771C131.807 162.879 132.101 163.904 132.483 164.848C132.907 165.873 133.434 166.796 134.062 167.616C134.691 168.423 135.402 169.113 136.195 169.688C137.002 170.234 137.897 170.658 138.882 170.959C139.866 171.26 140.939 171.41 142.102 171.41C143.195 171.41 144.214 171.273 145.157 171C146.114 170.74 146.989 170.371 147.782 169.893C148.657 169.346 149.437 168.662 150.12 167.842C150.804 167.021 151.378 166.119 151.843 165.135C152.28 164.15 152.615 163.084 152.848 161.936C153.08 160.773 153.196 159.55 153.196 158.265ZM147.352 153.876V158.265C147.352 159.003 147.311 159.714 147.229 160.397C147.16 161.081 147.051 161.71 146.9 162.284C146.709 163.022 146.449 163.686 146.121 164.273C145.807 164.848 145.417 165.326 144.952 165.709C144.583 166.023 144.159 166.263 143.681 166.427C143.202 166.591 142.676 166.673 142.102 166.673C141.5 166.673 140.96 166.584 140.481 166.406C140.017 166.229 139.6 165.976 139.23 165.647C138.834 165.278 138.485 164.8 138.185 164.212C137.897 163.61 137.679 162.947 137.528 162.223C137.392 161.648 137.296 161.026 137.241 160.356C137.187 159.687 137.159 158.989 137.159 158.265V153.876C137.159 153.11 137.187 152.379 137.241 151.682C137.31 150.984 137.412 150.342 137.549 149.754C137.727 148.988 137.973 148.318 138.287 147.744C138.615 147.17 139.012 146.691 139.477 146.309C139.818 146.049 140.201 145.851 140.625 145.714C141.062 145.577 141.548 145.509 142.081 145.509C142.642 145.509 143.147 145.584 143.599 145.734C144.063 145.885 144.48 146.097 144.85 146.37C145.314 146.739 145.718 147.218 146.06 147.806C146.401 148.38 146.675 149.036 146.88 149.774C147.044 150.362 147.16 151.005 147.229 151.702C147.311 152.386 147.352 153.11 147.352 153.876ZM164.66 141.141H157.503V171H162.794V162.161L162.548 148.749L166.055 161.156H168.905L172.822 148.195L172.576 162.161V171H177.867V141.141H170.71L167.49 152.358L164.66 141.141ZM197.493 164.766L199.236 171H205.307L195.709 141.141H190.479L180.697 171H186.768L188.531 164.766H197.493ZM189.946 159.864L193.084 148.872L196.14 159.864H189.946ZM229.978 145.837V141.141H205.901V145.837H214.986V171H220.77V145.837H229.978ZM251.634 157.916V153.363H239.37V145.837H253.644V141.141H233.587V171H253.705V166.345H239.37V157.916H251.634ZM264.451 167.698C264.451 168.751 264.807 169.633 265.518 170.344C266.229 171.055 267.192 171.41 268.409 171.41C269.612 171.41 270.569 171.062 271.28 170.364C272.005 169.653 272.367 168.765 272.367 167.698C272.367 166.632 272.012 165.736 271.301 165.012C270.604 164.287 269.64 163.925 268.409 163.925C267.165 163.925 266.194 164.294 265.497 165.032C264.8 165.757 264.451 166.646 264.451 167.698Z" fill="#E8E9EB"/>
<path d="M54 85H297C300.866 85 304 88.134 304 92V127H61C57.134 127 54 123.866 54 120V85Z" fill="#E8E9EB"/>
<path d="M54 183H297C300.866 183 304 186.134 304 190V225H61C57.134 225 54 221.866 54 218V183Z" fill="#E8E9EB"/>
<path d="M54 232H297C300.866 232 304 235.134 304 239V274H61C57.134 274 54 270.866 54 267V232Z" fill="#E8E9EB"/>
</svg>
