<svg xmlns="http://www.w3.org/2000/svg" viewBox="0 0 237.61 34.31">
  <defs><style>.cls-1{fill:#00628a;}</style></defs>
  <polygon class="cls-1" points="80.74 25.99 80.74 20.98 97.14 20.98 97.14 12.69 80.71 12.69 80.71 8.26 99.09 8.26 99.09 0 70.94 0 70.94 34.31 99.11 34.31 99.11 25.99 80.74 25.99"/><polygon class="cls-1" points="189.9 25.99 189.9 20.98 206.3 20.98 206.3 12.69 189.87 12.69 189.87 8.26 208.25 8.26 208.25 0 180.1 0 180.1 34.31 208.27 34.31 208.27 25.99 189.9 25.99"/><polygon class="cls-1" points="220.32 26.02 220.32 0 210.65 0 210.65 34.31 237.61 34.31 237.61 26.02 220.32 26.02"/><path class="cls-1" d="M34.2,34.79,18.93,17.49c2.6-2.93,14.63-17,14.63-17H22.17S10.28,13.78,10,14.08V.49H.64v34.3h9.51V21l12.5,13.77Z" transform="translate(-0.64 -0.48)"/><path class="cls-1" d="M60.08,23.72c4.94-1.34,8.17-5.39,8.47-10.95C68.88,6.67,63.68,1.15,57,.62,54.52.43,35.75.49,35.75.49v34.3h9V24.33l4.08,0,9.53,10.5H69.86Zm-4.52-7.78-.08,0H44.69v-7H55.54a3.52,3.52,0,0,1,0,7Z" transform="translate(-0.64 -0.48)"/><path class="cls-1" d="M166.78.75c-3-.24-7.65-.26-10.85-.26H134.27C131.14,4.14,123,13.74,123,13.74S114.69,4,111.67.49h-9.54V34.79h9.71v-20c1.51,1.63,9,10.13,9,10.13h4.22s7.48-8.46,9-10.13v20h9.71V8.94c5.88,0,20.8,0,21.49,0h.11a3.53,3.53,0,0,1,0,7.05H148.34V34.79H158V24.33s8.05-.12,8.85-.15c6.65-.29,11.19-4.77,11.55-11.42C178.71,6.67,173.5,1.28,166.78.75Z" transform="translate(-0.64 -0.48)"/>
</svg>
