<svg xmlns="http://www.w3.org/2000/svg" viewBox="0 0 200 47"><style type="text/css">  
	.st0{fill:#FFFFFF;}
	.st1{fill:#A57656;}
</style><polygon class="st0" points="50 0 50 46.2 38.4 46.2 38.4 32.6 11.7 32.6 11.7 46.2 0 46.2 0 0 11.7 0 11.7 22.2 38.4 22.2 38.4 0 "/><path class="st1" d="M84.5 32.8V22.4h30c4.8 0 8.7-0.6 8.7-6.3 0-5.4-3.9-5.9-8.3-5.9H61.5V0h53c7.6 0 14.8 0 19.1 6.1 1.7 2.6 2.8 6.3 2.8 10 0 2.8-0.6 5.4-1.7 7.6 -4.3 8.7-13 8.9-19.5 9.1H84.5z"/><polygon class="st0" points="200 0 188.5 0 182.8 23 176.8 0 165.3 0 159.4 23 153.5 0 142 0 153.7 45.8 153.5 46.2 165.3 46.2 165.2 45.8 171.1 22.8 176.8 45.8 176.8 46.2 188.5 46.2 188.5 45.8 "/></svg>