<svg width="97" height="36" viewBox="0 0 97 36" fill="none" xmlns="http://www.w3.org/2000/svg">
<path d="M95.0289 6.95179C94.174 6.95179 93.4807 6.26036 93.4807 5.40786C93.4807 4.55929 94.174 3.86786 95.0289 3.86786C95.8837 3.86786 96.5771 4.55929 96.5771 5.40786C96.5771 6.26036 95.8837 6.95179 95.0289 6.95179ZM95.0289 3.49858C93.9731 3.49858 93.1143 4.35501 93.1143 5.40786C93.1143 6.46072 93.9731 7.32108 95.0289 7.32108C96.0846 7.32108 96.9434 6.46465 96.9434 5.40786C96.9434 4.35501 96.0846 3.49858 95.0289 3.49858ZM95.2692 5.26251C95.2692 5.27822 95.2574 5.29001 95.2416 5.29001H94.7334V4.85001H95.2416C95.2574 4.85001 95.2692 4.86179 95.2692 4.87751V5.26251ZM95.675 5.35286V4.79108C95.675 4.62215 95.5371 4.48465 95.3677 4.48465H94.3277V6.35072H94.7374V5.66322H95.0171L95.344 6.35072H95.7892L95.4583 5.65536C95.5883 5.61608 95.6789 5.49822 95.6789 5.35679L95.675 5.35286ZM92.6731 16.29V11.5993C92.6731 9.92572 91.6016 8.85715 89.8683 8.85715C88.328 8.85715 87.2289 9.62322 86.4056 10.6957H86.378V5.29393H82.1156V6.61H83.2422C83.7937 6.61 84.038 6.80251 84.038 7.38V16.2939C84.038 16.8714 83.7898 17.0875 83.2422 17.0875H82.1156V18.3761H87.9459V17.0875H87.1737C86.6262 17.0875 86.378 16.8675 86.378 16.2939V13.2218C86.378 11.4657 87.5598 10.3971 88.6037 10.3971C89.6477 10.3971 90.3371 10.7546 90.3371 11.7682V16.2939C90.3371 16.8714 90.0889 17.0875 89.5413 17.0875H88.7968V18.3761H94.5719V17.0875H93.4728C92.8937 17.0875 92.6771 16.8675 92.6771 16.2939L92.6731 16.29ZM78.7868 12.2043C78.7868 13.0254 79.6377 13.3829 80.3271 13.3829C81.1819 13.3829 81.7571 12.6168 81.7571 11.7368C81.7571 10.0907 79.9686 8.85715 77.6877 8.85715C75.1034 8.85715 72.795 10.8057 72.795 13.7404C72.795 16.9225 74.3904 18.6746 77.4434 18.6746C80.138 18.6746 81.5128 17.2211 81.7059 14.5889H80.1656C80.0277 16.015 79.1768 17.0011 77.995 17.0011C75.9307 17.0011 75.4383 15.08 75.4383 13.5714C75.4383 12.0904 76.0134 10.1457 78.0777 10.1457C78.8498 10.1457 79.5353 10.3382 79.9765 10.9118C79.1807 10.9668 78.7947 11.4068 78.7947 12.2004L78.7868 12.2043ZM65.3692 12.6993C65.4244 11.4657 65.9207 10.2321 67.264 10.2321C68.6665 10.2321 69.0525 11.4657 69.0525 12.6993H65.3692ZM67.2956 8.86108C64.5734 8.86108 62.7022 10.8882 62.7022 13.7679C62.7022 16.95 64.3253 18.6786 67.4059 18.6786C70.0453 18.6786 71.3925 17.3625 71.6683 15.1154H70.0177C69.7695 16.4589 69.0565 17.1975 67.6265 17.1975C65.7828 17.1975 65.318 15.5239 65.3731 13.9879H71.6959C71.9165 11.7407 70.5416 8.86108 67.2956 8.86108ZM63.3365 10.6721V5.29786H51.0731V10.6721H52.5583V9.79608C52.5583 7.71 53.6298 6.75143 55.8319 6.75143V16.2114C55.8319 16.7339 55.6389 16.9264 55.0322 16.9264H53.5195V18.38H60.9177V16.9264H59.405C58.8022 16.9264 58.6092 16.7339 58.6092 16.2114V6.75143C60.8074 6.75143 61.8828 7.71 61.8828 9.79608V10.6721H63.3404H63.3365ZM44.7504 17.0875C41.8904 17.0875 41.0907 14.3729 41.0907 11.8232C41.0907 9.24608 41.8313 6.61393 44.7504 6.61393C47.1141 6.61393 48.2131 8.37 48.4889 10.5071H49.9465V5.10536H48.5441L48.158 6.33893C47.3071 5.51786 45.8495 4.91286 44.5574 4.91286C40.4604 4.91286 37.9865 7.93 37.9865 11.6582C37.9865 15.8539 40.1847 18.7611 44.3368 18.7611C47.7995 18.7611 49.781 16.84 50.0016 13.4143H48.2959C48.0753 15.5004 47.0037 17.0875 44.7504 17.0875ZM29.6547 12.7268L31.2225 7.95358H31.2777L32.9834 12.7268H29.6547ZM36.9425 15.8539L32.9834 5.29786H30.2062L26.4125 15.8539C26.0816 16.785 25.3962 16.9225 24.3483 16.9225V18.3761H30.5056V16.9225H28.9653C28.6068 16.9225 28.331 16.84 28.331 16.565C28.331 16.3725 28.3862 16.2625 28.4138 16.1525L29.0716 14.1764H33.5547L34.2125 16.1525C34.2401 16.2625 34.2953 16.455 34.2953 16.62C34.2953 16.8125 34.1298 16.9225 33.6886 16.9225H32.1207V18.3761H38.995V16.9225C37.951 16.9225 37.2616 16.785 36.9307 15.8539H36.9425ZM9.88678 12.0432C9.88678 12.5107 10.2728 12.8918 10.7377 12.8918C11.2065 12.8918 11.561 12.5068 11.561 12.0432C11.561 11.5796 11.2025 11.1946 10.7377 11.1946C10.2689 11.1946 9.88678 11.5796 9.88678 12.0432ZM11.2065 5.18786C11.2065 5.38036 11.3719 5.49036 11.7028 5.49036C14.8938 5.95786 17.3401 8.7275 17.3401 12.0432C17.3401 15.6889 14.3974 18.6511 10.7416 18.6511C7.08588 18.6511 4.11557 15.6889 4.11557 12.0432C4.11557 8.72358 6.56194 5.98143 9.75284 5.51786C10.001 5.49036 10.2492 5.38036 10.2492 5.18786V0.827148H0.128906V22.0257H21.3859V0.827148H11.2104V5.18786H11.2065ZM12.1953 11.2457C12.3056 11.4382 12.4434 11.5482 12.6641 11.5757H16.375C16.1268 8.66858 13.708 6.39393 10.7377 6.39393C7.60194 6.39393 5.04527 8.91608 5.04527 12.0432C5.04527 15.1704 7.60194 17.6925 10.7377 17.6925C13.708 17.6925 16.1544 15.4179 16.375 12.5107H12.6641C12.4434 12.5107 12.3056 12.6207 12.1953 12.7857C11.9195 13.3318 11.368 13.6893 10.7377 13.6893C9.80406 13.6893 9.05951 12.9507 9.05951 12.0432C9.05951 11.1396 9.80406 10.3971 10.7377 10.3971C11.3404 10.3971 11.8919 10.7271 12.1953 11.2457Z" fill="white"/>
<path d="M47.0548 31.2028C46.9327 31.1753 46.6333 31.1125 46.3694 31.0457C45.8769 30.9278 45.7154 30.7628 45.7154 30.5153C45.7154 30.1657 46.003 29.9575 46.5506 29.9575C46.85 29.9575 47.1454 30.0361 47.3897 30.1657C47.5591 30.2521 47.63 30.3111 47.7245 30.3111C47.827 30.3111 47.886 30.2482 48.0515 30.0361C48.2248 29.8121 48.2642 29.7532 48.2642 29.6668C48.2642 29.5803 48.2169 29.5096 48.0791 29.3957C47.7521 29.1364 47.173 28.9596 46.6018 28.9596C45.4909 28.9596 44.6518 29.5489 44.6518 30.5389C44.6518 31.3443 45.227 31.7961 46.0188 31.9925C46.3457 32.0711 46.4718 32.0986 46.7673 32.1693C47.236 32.2871 47.4094 32.4561 47.4094 32.7193C47.4094 33.065 47.1257 33.3203 46.5506 33.3203C46.0227 33.3203 45.6406 33.1711 45.3215 32.955C45.2033 32.8843 45.1166 32.8136 45.03 32.8136C44.9157 32.8136 44.8606 32.8803 44.6833 33.1082C44.5021 33.3361 44.4785 33.3832 44.4785 33.4578C44.4785 33.5678 44.5651 33.6425 44.6912 33.7328C45.1363 34.0668 45.7036 34.3025 46.5388 34.3025C47.6379 34.3025 48.4809 33.6896 48.4809 32.6878C48.4809 31.9061 48.02 31.4464 47.043 31.2028H47.0548ZM33.1724 27.1643C32.5736 27.1643 32.5736 27.1643 32.5736 27.7614C32.5736 28.3782 32.5736 28.3782 33.1724 28.3782C33.7751 28.3782 33.7751 28.3782 33.7751 27.7614C33.7751 27.1643 33.7751 27.1643 33.1724 27.1643ZM43.017 29.05C42.4694 29.05 42.4694 29.05 42.4694 29.6118V33.6818C42.4694 34.2082 42.4694 34.2082 43.017 34.2082C43.5763 34.2082 43.5763 34.2082 43.5763 33.6818V29.6118C43.5763 29.05 43.5763 29.05 43.017 29.05ZM43.017 27.1643C42.4182 27.1643 42.4182 27.1643 42.4182 27.7614C42.4182 28.3782 42.4182 28.3782 43.017 28.3782C43.6197 28.3782 43.6197 28.3782 43.6197 27.7614C43.6197 27.1643 43.6197 27.1643 43.017 27.1643ZM37.8445 33.0728C37.6357 33.23 37.2103 33.395 36.7651 33.395C36.1112 33.395 35.7369 33.1278 35.7369 32.6211C35.7369 32.1968 36.0639 31.8589 36.7612 31.8589C37.1394 31.8589 37.4545 31.9218 37.8485 32.0396V33.0728H37.8445ZM36.8163 28.9596C36.2963 28.9596 35.7803 29.0853 35.3785 29.2503C35.1263 29.3486 35.0633 29.4193 35.0633 29.5136C35.0633 29.5882 35.1027 29.6982 35.1933 29.9064C35.3312 30.2089 35.3824 30.2482 35.4769 30.2521C35.5518 30.2561 35.6779 30.2089 35.8079 30.1657C36.0876 30.0636 36.4303 29.9614 36.8163 29.9614C37.553 29.9614 37.8445 30.2561 37.8445 30.8689V31.2382C37.4388 31.1282 37.0685 31.0693 36.6233 31.0693C35.2839 31.0693 34.6851 31.8 34.6851 32.6486C34.6851 33.5757 35.3273 34.3064 36.6863 34.3064C37.75 34.3064 38.4394 33.9607 38.7073 33.7761C38.8766 33.6582 38.9121 33.5875 38.9121 33.3714V30.8689C38.9121 29.5411 38.1754 28.9596 36.8163 28.9596ZM40.6612 27.2703C40.1097 27.2703 40.1097 27.2703 40.1097 27.8478V33.6857C40.1097 34.2121 40.1057 34.2121 40.6612 34.2121C41.2127 34.2121 41.2127 34.2121 41.2127 33.6857V27.8478C41.2127 27.2703 41.2088 27.2703 40.6612 27.2703ZM33.1685 29.0539C32.6209 29.0539 32.6209 29.0539 32.6209 29.6157V33.6857C32.6209 34.2121 32.6209 34.2121 33.1685 34.2121C33.7279 34.2121 33.7279 34.2121 33.7279 33.6857V29.6157C33.7279 29.0539 33.7279 29.0539 33.1685 29.0539ZM11.6988 28.9636C11.0448 28.9636 10.5051 29.2189 10.0954 29.5136C9.75664 29.1678 9.32725 28.9636 8.67725 28.9636C7.9721 28.9636 7.23149 29.2661 6.90846 29.4939C6.7627 29.6 6.70361 29.7021 6.70361 29.9143V33.67C6.70361 34.2161 6.70361 34.2161 7.25513 34.2161C7.81058 34.2161 7.81058 34.2161 7.81058 33.67V30.3268C8.00755 30.205 8.38573 30.0518 8.70089 30.0518C9.33119 30.0518 9.63058 30.3543 9.63058 31.0182V33.67C9.63058 34.2161 9.63058 34.2161 10.1821 34.2161C10.7336 34.2161 10.7336 34.2161 10.7336 33.67V30.9868C10.7336 30.7668 10.7218 30.5782 10.6942 30.4053C10.9188 30.2207 11.2457 30.0518 11.6397 30.0518C12.2739 30.0518 12.5576 30.3857 12.5576 31.0261V33.67C12.5576 34.2161 12.5576 34.2161 13.1012 34.2161C13.6566 34.2161 13.6566 34.2161 13.6566 33.67V30.9632C13.6566 29.7061 13.0815 28.9636 11.6988 28.9636ZM17.726 33.0768C17.5173 33.2339 17.0918 33.3989 16.6427 33.3989C15.9927 33.3989 15.6145 33.1318 15.6145 32.625C15.6145 32.2007 15.9415 31.8628 16.6388 31.8628C17.0169 31.8628 17.3321 31.9257 17.726 32.0436V33.0768ZM16.6979 28.9636C16.1779 28.9636 15.6618 29.0893 15.26 29.2543C15.0079 29.3525 14.9448 29.4232 14.9448 29.5175C14.9448 29.5921 14.9842 29.7021 15.0748 29.9103C15.2127 30.2128 15.2639 30.2521 15.3585 30.2561C15.4333 30.26 15.5594 30.2128 15.6894 30.1696C15.9691 30.0675 16.3118 29.9653 16.6979 29.9653C17.4345 29.9653 17.726 30.26 17.726 30.8728V31.2421C17.3203 31.1321 16.95 31.0732 16.5048 31.0732C15.1654 31.0732 14.5666 31.8039 14.5666 32.6525C14.5666 33.5796 15.2088 34.3103 16.5679 34.3103C17.6315 34.3103 18.3209 33.9646 18.5888 33.78C18.7582 33.6621 18.7936 33.5914 18.7936 33.3753V30.8728C18.7936 29.545 18.0569 28.9636 16.6979 28.9636ZM52.637 31.1321C52.633 31.2578 52.637 31.2578 52.5148 31.2578H50.2851C50.2694 30.4289 50.6594 29.9064 51.4827 29.9064C52.2154 29.9064 52.6724 30.3857 52.637 31.1321ZM51.4709 28.9636C50.23 28.9636 49.3318 29.7453 49.2294 31.0025C49.2057 31.3089 49.2018 31.8511 49.2254 32.2203C49.3239 33.4461 50.1551 34.3025 51.5576 34.3025C52.18 34.3025 52.767 34.1336 53.09 33.9764C53.3185 33.8703 53.3736 33.7996 53.3736 33.7171C53.3736 33.6543 53.35 33.5678 53.2554 33.3714C53.1254 33.0807 53.0663 32.9864 52.9482 32.9864C52.8654 32.9864 52.7591 33.0414 52.6015 33.1043C52.2903 33.2339 51.9476 33.3046 51.5497 33.3046C50.8091 33.3046 50.2773 32.9118 50.2773 32.1732V32.0514H53.0388C53.5745 32.0514 53.6494 31.9964 53.6494 31.415V31.1439C53.6494 29.8278 52.7827 28.9596 51.467 28.9596L51.4709 28.9636ZM26.9363 31.1321C26.9324 31.2578 26.9363 31.2578 26.8142 31.2578H24.5845C24.5688 30.4289 24.9588 29.9064 25.7821 29.9064C26.5109 29.9064 26.9718 30.3857 26.9363 31.1321ZM25.7742 28.9636C24.5294 28.9636 23.6351 29.7453 23.5327 31.0025C23.5091 31.3089 23.5012 31.8511 23.5288 32.2203C23.6273 33.4461 24.4585 34.3025 25.8609 34.3025C26.4833 34.3025 27.0703 34.1336 27.3973 33.9764C27.6257 33.8703 27.6809 33.7996 27.6809 33.7171C27.6809 33.6543 27.6573 33.5678 27.5627 33.3714C27.4327 33.0807 27.3736 32.9864 27.2554 32.9864C27.1727 32.9864 27.0663 33.0414 26.9088 33.1043C26.5976 33.2339 26.2548 33.3046 25.8569 33.3046C25.1163 33.3046 24.5845 32.9118 24.5845 32.1732V32.0514H27.346C27.8818 32.0514 27.9566 31.9964 27.9566 31.415V31.1439C27.9566 29.8278 27.09 28.9596 25.7742 28.9596V28.9636ZM22.666 33.0925C22.603 33.0925 22.5006 33.1161 22.3863 33.1514C22.1973 33.2143 21.9766 33.2732 21.7245 33.2732C21.2479 33.2732 21.0273 32.9903 21.0273 32.5111V30.0714H22.3115C22.8433 30.0714 22.8433 30.0714 22.8433 29.5764C22.8433 29.0696 22.8433 29.0578 22.3115 29.0578H21.0273V28.4136C21.0273 27.8361 21.0273 27.8361 20.4718 27.8361C19.9203 27.8361 19.9282 27.8361 19.9282 28.4136V32.515C19.9282 33.5364 20.4363 34.3143 21.5788 34.3143C22.0082 34.3143 22.3942 34.2396 22.7803 34.0746C22.9615 33.9961 23.0442 33.9332 23.0442 33.835C23.0442 33.7957 23.0442 33.7486 22.9418 33.4696C22.8394 33.1946 22.8 33.0964 22.666 33.0964V33.0925ZM31.5651 29.0853C31.2973 29.0146 30.9427 28.9636 30.6157 28.9636C29.5285 28.9636 28.9494 29.5843 28.9494 30.5782V33.7014C28.9494 34.2161 28.9494 34.2161 29.5088 34.2161C30.0524 34.2161 30.0524 34.2161 30.0524 33.7014V30.7668C30.0524 30.2521 30.2848 30.0518 30.73 30.0518C30.9506 30.0518 31.0963 30.0753 31.2224 30.1068C31.3839 30.1461 31.4942 30.1657 31.5533 30.1657C31.703 30.1657 31.7542 30.0793 31.8409 29.7807C31.9276 29.4978 31.9394 29.4153 31.9394 29.3682C31.9394 29.2111 31.7779 29.1443 31.5651 29.0853Z" fill="white"/>
<path d="M60.3306 30.2561C60.3779 30.3896 60.4173 30.5507 60.4173 30.6175C60.4173 30.7039 60.3779 30.7118 60.2006 30.7511C60.0588 30.7786 60.0352 30.7904 59.9879 30.7904C59.9131 30.7904 59.9131 30.7157 59.854 30.5625C59.6255 29.9654 59.0622 29.7021 58.5303 29.7021C57.6558 29.7021 57.0491 30.2796 57.0097 31.0575C56.99 31.4071 56.9822 32.0004 57.0097 32.3421C57.0767 33.1357 57.6361 33.6818 58.5303 33.6818C59.0622 33.6818 59.6216 33.4186 59.8422 32.8214C59.9091 32.6407 59.9091 32.5936 59.984 32.5936C60.0116 32.5936 60.1022 32.6132 60.2361 32.6525C60.3976 32.6996 60.4409 32.7193 60.4409 32.7861C60.4409 32.8529 60.3858 33.0218 60.3346 33.1357C60.1731 33.5246 59.6491 34.2357 58.5382 34.2357C57.3131 34.2357 56.5134 33.3989 56.4464 32.3264C56.4267 31.9571 56.4267 31.4425 56.4464 31.0614C56.5055 29.9536 57.3485 29.1561 58.5382 29.1561C59.5034 29.1561 60.1416 29.7454 60.3346 30.2639L60.3306 30.2561Z" fill="white"/>
<path d="M61.8672 31.0261C61.8278 31.4228 61.8278 31.8825 61.8672 32.3303C61.9421 33.1357 62.5133 33.6778 63.3603 33.6778C64.2072 33.6778 64.7745 33.1357 64.8533 32.3303C64.8927 31.8864 64.8927 31.4386 64.8533 31.0418C64.7784 30.2364 64.2072 29.6982 63.3603 29.6982C62.5133 29.6982 61.946 30.2325 61.8672 31.03V31.0261ZM65.4127 31.0614C65.4521 31.4464 65.4521 31.9296 65.4127 32.3225C65.3063 33.4107 64.4988 34.2278 63.3603 34.2278C62.2218 34.2278 61.4142 33.4146 61.3078 32.3225C61.2724 31.9453 61.2724 31.47 61.3078 31.0968C61.4181 29.9418 62.2218 29.1521 63.3603 29.1521C64.4988 29.1521 65.3024 29.93 65.4127 31.0653V31.0614Z" fill="white"/>
<path d="M73.0667 30.8807V33.8546C73.0667 34.1375 73.0667 34.1375 72.791 34.1375C72.5152 34.1375 72.5152 34.1375 72.5152 33.8546V30.9278C72.5152 30.1382 72.1252 29.6982 71.298 29.6982C70.7189 29.6982 70.2816 29.9536 69.9861 30.1893C70.0531 30.3818 70.0728 30.6057 70.0728 30.8807V33.8546C70.0728 34.1375 70.0728 34.1375 69.797 34.1375C69.5213 34.1375 69.5213 34.1375 69.5213 33.8546V30.9278C69.5213 30.0793 69.1431 29.6982 68.2764 29.6982C67.914 29.6982 67.3546 29.8986 67.0789 30.0675V33.8586C67.0789 34.1414 67.0789 34.1414 66.7952 34.1414C66.5273 34.1414 66.5273 34.1414 66.5273 33.8586V29.9457C66.5273 29.7925 66.5667 29.7336 66.6613 29.6628C66.9804 29.4232 67.7052 29.1521 68.3158 29.1521C69.0486 29.1521 69.4543 29.3996 69.7419 29.71C70.0373 29.4939 70.5376 29.1521 71.3098 29.1521C72.5467 29.1521 73.0667 29.8357 73.0667 30.8846V30.8807Z" fill="white"/>
<path d="M75.0325 30.1107V33.285C75.261 33.4382 75.8322 33.6739 76.4191 33.6739C77.2661 33.6739 77.8413 33.1514 77.9161 32.3382C77.9555 31.8943 77.9594 31.4386 77.9201 31.0418C77.8452 30.2246 77.2622 29.6943 76.4191 29.6943C75.9543 29.6943 75.3279 29.8828 75.0325 30.1107ZM78.4716 31.0103C78.511 31.4071 78.511 31.9178 78.4716 32.3264C78.3652 33.4146 77.5576 34.22 76.4191 34.22C75.8676 34.22 75.3752 34.0393 75.0325 33.8861V35.6028C75.0325 35.8857 75.0325 35.8857 74.7567 35.8857C74.481 35.8857 74.481 35.8857 74.481 35.6028V29.9653C74.481 29.8593 74.4888 29.7768 74.6149 29.6904C74.9379 29.4743 75.651 29.1404 76.4191 29.1404C77.6088 29.1404 78.3652 29.8986 78.4716 31.0064V31.0103Z" fill="white"/>
<path d="M82.6791 33.2575V31.91C82.1276 31.7607 81.7455 31.6743 81.2924 31.6743C80.3627 31.6743 79.9333 32.1025 79.9333 32.6682C79.9333 33.3046 80.3588 33.6739 81.2924 33.6739C81.7849 33.6739 82.3758 33.4854 82.6791 33.2575ZM83.1046 33.7014C82.8485 33.89 82.1355 34.2239 81.2058 34.2239C80.0161 34.2239 79.3818 33.6189 79.3818 32.6604C79.3818 31.7961 80.0161 31.1243 81.253 31.1243C81.7258 31.1243 82.1158 31.1911 82.6791 31.3443V30.9357C82.6791 30.0557 82.2615 29.6943 81.387 29.6943C80.8985 29.6943 80.4652 29.8436 80.2012 29.9614C80.0988 30.0086 80.0476 30.0282 80.02 30.0282C79.9649 30.0282 79.9333 30.0007 79.8585 29.8279C79.7915 29.6786 79.7837 29.6275 79.7837 29.6C79.7837 29.5529 79.8112 29.5254 79.89 29.4861C80.2997 29.2975 80.9064 29.1443 81.3909 29.1443C82.5885 29.1443 83.2346 29.6471 83.2346 30.8493V33.4461C83.2346 33.6071 83.2346 33.6071 83.1124 33.7014H83.1046Z" fill="white"/>
<path d="M88.257 34.1375C87.9812 34.1375 87.9812 34.1375 87.9812 33.89V31.0654C87.9812 30.1107 87.343 29.6904 86.5551 29.6904C85.9169 29.6904 85.3575 29.8907 85.0818 30.0596V33.8861C85.0818 34.1336 85.0818 34.1336 84.806 34.1336C84.5303 34.1336 84.5303 34.1336 84.5303 33.8861V29.9339C84.5303 29.7807 84.5697 29.7139 84.6642 29.6511C84.9282 29.4546 85.5939 29.1404 86.5748 29.1404C87.867 29.1404 88.5327 29.8396 88.5327 31.0457V33.89C88.5327 34.1375 88.5327 34.1375 88.257 34.1375Z" fill="white"/>
<path d="M93.272 29.2778C93.4257 29.3328 93.4808 29.3525 93.4808 29.4193C93.4808 29.4586 93.4611 29.5057 93.4138 29.6275L91.6175 34.0118C91.2787 34.8328 90.7351 35.5636 90.2781 35.8307C90.1717 35.8896 90.0772 35.9368 90.022 35.9368C89.9669 35.9368 89.9472 35.8975 89.8526 35.7364C89.766 35.5832 89.7581 35.5557 89.7581 35.5203C89.7581 35.4653 89.7975 35.4339 89.9117 35.3789C90.3569 35.1511 90.7587 34.6875 91.0896 33.8428L89.2105 29.6157C89.1633 29.5018 89.1436 29.4664 89.1436 29.4271C89.1436 29.38 89.1829 29.3525 89.3523 29.2857C89.4745 29.2386 89.5533 29.2111 89.5808 29.2111C89.6478 29.2111 89.6675 29.2582 89.7226 29.3918C90.7193 31.6271 90.9005 32.0553 91.3457 33.0689C91.3575 33.0886 91.3654 33.1082 91.3851 33.1082C91.4048 33.1082 91.4126 33.0886 91.4245 33.0689C91.7751 32.1968 92.0784 31.4386 92.9254 29.3643C92.9648 29.27 92.9923 29.2111 93.0475 29.2111C93.0869 29.2111 93.142 29.2307 93.276 29.2778H93.272Z" fill="white"/>
<path d="M3.41052 33.2575V31.91C2.85901 31.7607 2.48082 31.6743 2.02385 31.6743C1.09416 31.6743 0.664763 32.1025 0.664763 32.6682C0.664763 33.3046 1.09416 33.6739 2.02385 33.6739C2.51628 33.6739 3.10719 33.4854 3.41052 33.2575ZM3.83992 33.7014C3.58385 33.89 2.87082 34.2239 1.94113 34.2239C0.75143 34.2239 0.117188 33.6189 0.117188 32.6604C0.117188 31.7961 0.75143 31.1243 1.9884 31.1243C2.46113 31.1243 2.85113 31.1911 3.41446 31.3443V30.9357C3.41446 30.0557 2.99688 29.6943 2.12234 29.6943C1.63385 29.6943 1.20052 29.8436 0.936582 29.9614C0.830218 30.0086 0.782945 30.0282 0.755369 30.0282C0.696278 30.0282 0.668703 30.0007 0.593854 29.8279C0.526885 29.6786 0.519006 29.6275 0.519006 29.6C0.519006 29.5529 0.546581 29.5254 0.62143 29.4861C1.03113 29.2975 1.63779 29.1443 2.12234 29.1443C3.31992 29.1443 3.96598 29.6471 3.96598 30.8493V33.4461C3.96598 33.6071 3.96598 33.6071 3.84385 33.7014H3.83992Z" fill="white"/>
</svg>
