<?xml version="1.0" standalone="no"?>
<!DOCTYPE svg PUBLIC "-//W3C//DTD SVG 20010904//EN"
 "http://www.w3.org/TR/2001/REC-SVG-20010904/DTD/svg10.dtd">
<svg version="1.0" xmlns="http://www.w3.org/2000/svg"
 width="1024.000000pt" height="1024.000000pt" viewBox="0 0 1024.000000 1024.000000"
 preserveAspectRatio="xMidYMid meet">

<g transform="translate(0.000000,1024.000000) scale(0.100000,-0.100000)"
fill="#000000" stroke="none">
<path d="M7224 9129 c-5 -8 1 -10 19 -5 14 3 29 1 32 -4 7 -12 25 -4 25 11 0
13 -67 11 -76 -2z"/>
<path d="M8840 9065 c-91 -48 -368 -254 -549 -407 -69 -60 -131 -108 -136
-108 -6 0 -34 21 -62 48 -28 26 -77 61 -109 77 -51 26 -70 30 -140 30 -82 0
-82 0 -155 -50 -67 -45 -357 -251 -369 -262 -6 -6 70 -76 190 -173 52 -42 138
-122 190 -177 149 -156 402 -493 487 -645 60 -110 126 -208 138 -208 5 1 22
18 37 40 15 22 60 65 100 97 110 88 277 253 301 298 17 32 21 58 22 125 0 90
-12 133 -52 188 l-25 33 26 33 c13 18 61 63 104 100 54 46 82 76 85 95 4 19
47 67 139 152 73 68 150 138 170 154 33 26 38 35 38 72 0 35 7 50 36 83 24 26
34 45 30 58 -12 37 -184 229 -251 280 -129 98 -167 109 -245 67z m73 -120 c20
-20 37 -40 37 -46 0 -5 -30 -23 -66 -40 -93 -41 -272 -163 -453 -306 -84 -68
-159 -123 -166 -123 -6 0 -17 11 -23 25 -10 23 -7 28 51 79 34 30 110 90 168
133 173 127 301 225 353 270 26 24 51 43 55 43 3 0 23 -16 44 -35z m52 -110
c9 -25 6 -31 -36 -69 -25 -22 -86 -68 -135 -100 -49 -33 -132 -96 -184 -141
-111 -95 -168 -135 -193 -135 -10 0 -29 -11 -42 -24 l-25 -25 -30 25 c-16 14
-30 29 -30 33 0 4 41 29 92 56 51 27 117 71 147 99 82 75 137 117 221 168 41
26 100 69 130 97 30 27 60 49 65 47 6 -1 14 -15 20 -31z m209 -77 c67 -52 90
-88 38 -62 -27 13 -101 94 -86 94 3 0 25 -14 48 -32z m-130 -39 c4 -20 -2 -32
-32 -61 -66 -62 -220 -186 -280 -224 -31 -20 -77 -53 -102 -74 -53 -43 -130
-94 -147 -98 -7 -1 -13 2 -13 8 0 6 -5 10 -11 10 -5 0 -7 -4 -4 -10 10 -16
-12 -11 -31 7 -13 14 -14 18 -3 21 14 4 90 52 99 63 15 18 183 139 187 135 3
-2 28 17 56 43 267 246 265 245 281 180z m-1182 -123 c17 -23 16 -24 -35 -67
-29 -25 -99 -78 -156 -119 -57 -41 -112 -82 -123 -89 -18 -13 -22 -13 -34 4
-8 10 -14 26 -14 34 1 9 50 49 110 90 61 41 134 96 162 122 29 27 58 48 63 48
6 0 18 -10 27 -23z m1292 -9 c16 -12 11 -19 -57 -74 -41 -34 -85 -67 -98 -75
-13 -7 -64 -50 -113 -95 -49 -46 -94 -83 -101 -83 -7 0 -16 12 -20 27 -6 24 1
34 62 90 37 35 104 88 148 117 44 30 94 66 110 80 34 29 44 31 69 13z m-1122
-104 c8 -10 7 -13 -3 -13 -7 0 -27 -13 -44 -29 -36 -35 -256 -187 -302 -209
-29 -14 -34 -14 -57 2 -14 9 -26 23 -26 30 0 17 57 61 205 158 88 59 112 79
119 105 l10 32 43 -32 c24 -17 49 -37 55 -44z m88 -93 c0 -4 -26 -24 -57 -46
-32 -21 -101 -83 -153 -136 -53 -54 -101 -98 -106 -98 -6 0 -21 12 -35 26
l-24 25 90 85 c50 47 106 94 125 104 19 10 53 34 75 53 l40 35 23 -21 c12 -11
22 -23 22 -27z m74 -76 c18 -26 18 -26 -15 -60 -19 -19 -67 -58 -109 -86 -41
-29 -102 -72 -134 -96 l-60 -43 -25 25 -25 26 34 35 c19 19 57 47 84 61 57 29
180 125 198 154 14 22 27 18 52 -16z m126 -164 c0 -23 -69 -80 -228 -187 -107
-72 -107 -72 -123 -51 -10 12 -15 27 -12 34 2 7 55 48 117 92 117 84 186 150
186 180 1 13 8 9 30 -16 17 -18 30 -41 30 -52z m430 -4 c0 -13 -103 -77 -115
-72 -26 10 -16 24 37 50 48 24 78 32 78 22z m-310 -143 c0 -11 -312 -253 -327
-253 -5 0 -14 10 -22 22 -13 21 -12 24 15 45 212 164 271 212 279 231 l10 23
22 -28 c13 -15 23 -33 23 -40z m130 -118 c0 -11 -159 -143 -284 -235 -56 -42
-59 -43 -72 -25 -19 26 -18 32 14 52 56 35 209 162 252 210 l45 49 23 -20 c12
-11 22 -25 22 -31z m100 -94 c5 -11 10 -22 10 -24 0 -3 -34 -32 -76 -64 -257
-196 -267 -203 -281 -192 -10 9 0 23 50 69 117 108 262 229 274 229 7 1 17 -8
23 -18z m-56 -215 c-6 -17 -89 -87 -123 -105 -19 -10 -22 -10 -16 0 6 9 2 11
-13 7 -34 -9 -26 -1 19 23 23 11 63 36 88 55 53 39 52 38 45 20z"/>
<path d="M4755 8969 c-186 -12 -338 -35 -510 -79 -862 -219 -1558 -674 -2082
-1360 -363 -476 -588 -960 -732 -1580 -49 -209 -69 -374 -78 -617 l-6 -183
-36 -5 c-47 -8 -65 -18 -69 -39 -6 -29 18 -46 63 -46 l42 0 7 -135 c10 -202
21 -280 87 -620 24 -122 154 -519 221 -673 57 -132 129 -265 222 -412 37 -58
80 -133 97 -168 l31 -63 41 6 c293 44 726 168 1031 295 482 201 1122 514 1408
690 58 36 137 82 175 103 37 21 91 52 118 69 28 17 90 53 139 80 283 158 1158
744 1465 982 91 71 200 151 241 179 41 27 98 69 125 92 28 23 104 82 170 133
550 418 1536 1316 1854 1687 123 143 116 136 132 139 8 1 24 7 36 14 30 16 43
15 43 -4 0 -12 5 -11 20 7 38 47 19 7 -39 -79 -170 -253 -898 -995 -1334
-1361 -45 -37 -124 -107 -175 -154 -213 -197 -598 -528 -699 -601 -29 -21 -53
-42 -53 -48 0 -5 17 4 37 21 27 22 39 27 45 18 5 -8 8 -6 8 6 0 11 9 21 20 24
11 3 20 9 20 14 0 5 7 9 15 9 8 0 15 -7 15 -15 0 -8 4 -15 10 -15 6 0 6 9 0
24 -7 21 -6 26 10 31 11 4 25 15 30 26 6 10 17 19 25 19 8 0 15 4 15 9 0 4 12
6 26 3 24 -4 25 -3 14 18 -8 15 -8 20 -1 16 6 -4 14 0 17 8 3 9 10 14 14 11 5
-3 21 11 36 30 19 26 29 32 35 23 6 -9 10 -8 15 6 5 14 9 15 16 4 6 -10 14 -7
33 15 13 15 31 27 40 27 8 0 15 4 15 10 0 5 15 17 33 25 30 15 29 13 -13 -25
-84 -76 -238 -190 -257 -190 -13 0 -15 -2 -5 -9 10 -6 3 -15 -25 -36 -21 -16
-45 -36 -54 -44 -47 -47 -155 -137 -234 -197 -50 -37 -103 -78 -120 -91 -16
-13 -34 -27 -40 -31 -5 -4 -38 -30 -71 -57 -34 -28 -87 -68 -119 -90 -32 -22
-83 -59 -114 -83 -184 -139 -853 -603 -971 -672 -41 -24 -138 -84 -215 -133
-279 -178 -626 -382 -905 -532 -80 -42 -149 -81 -155 -85 -11 -9 -413 -210
-565 -283 -122 -58 -249 -110 -269 -110 -9 0 -18 -3 -21 -7 -6 -9 -125 -60
-137 -60 -4 1 18 13 50 28 l57 28 -45 12 c-53 14 -58 35 -15 57 16 8 33 21 37
28 4 7 36 26 70 42 34 16 61 30 59 32 -2 2 -70 -23 -152 -55 -329 -130 -823
-276 -1029 -303 -122 -16 -545 -6 -636 15 -92 21 -229 70 -292 103 -137 74
-229 224 -255 418 -8 55 -9 47 -16 -89 -11 -193 -5 -258 39 -444 49 -209 51
-213 110 -223 19 -4 41 -18 72 -48 9 -8 36 -26 62 -39 25 -14 53 -31 62 -38 9
-8 18 -12 21 -9 3 3 3 -6 0 -21 -3 -15 -13 -29 -23 -31 -11 -3 -19 -9 -19 -14
0 -4 -15 -11 -34 -15 -19 -3 -37 -13 -40 -21 -7 -17 10 -53 25 -53 6 0 3 7 -6
16 -9 9 -14 19 -11 21 3 3 35 -24 73 -61 67 -64 96 -81 180 -106 23 -7 52 -22
63 -32 11 -11 26 -17 33 -15 7 2 28 -3 47 -13 38 -19 144 -25 425 -25 95 0
163 -4 168 -10 4 -6 10 -6 15 2 4 6 37 12 77 14 39 1 77 6 85 10 8 4 50 12 93
18 43 6 88 16 100 23 12 7 26 11 31 10 16 -5 66 9 66 18 0 5 -7 7 -15 4 -10
-4 -15 0 -15 15 0 14 6 21 20 21 13 0 20 7 20 20 0 17 7 20 40 20 33 0 40 3
40 20 0 17 7 20 40 20 22 0 40 5 40 10 0 6 9 10 20 10 11 0 20 5 20 10 0 6 18
10 40 10 l40 0 0 60 c0 36 -4 60 -11 60 -5 0 -8 4 -4 9 3 6 -2 14 -11 19 -12
7 22 22 135 60 244 83 584 233 801 354 74 41 182 100 240 130 566 299 699 376
1238 719 108 69 289 187 402 264 193 130 296 202 585 413 67 48 177 127 245
176 69 50 166 122 215 161 50 39 124 96 165 127 42 31 129 104 195 163 136
120 159 136 153 108 -2 -10 -11 -17 -21 -15 -9 2 -17 -2 -17 -8 0 -6 4 -9 9
-6 5 4 12 0 14 -6 4 -10 6 -10 6 0 1 14 41 17 41 2 0 -5 -4 -10 -10 -10 -5 0
-10 -5 -10 -11 0 -6 -15 -26 -34 -44 -25 -24 -40 -31 -59 -28 -19 4 -27 0 -31
-15 -6 -18 -88 -102 -101 -102 -3 0 -21 -15 -39 -32 -19 -18 -55 -51 -80 -73
-43 -38 -55 -55 -38 -55 4 0 36 27 71 60 35 33 66 58 69 55 2 -2 18 9 34 25
16 17 33 30 36 30 4 0 25 17 47 38 22 20 65 55 95 76 67 48 107 83 230 198
126 119 133 124 223 198 43 34 98 81 121 104 23 22 84 79 136 126 52 47 173
161 268 255 265 260 298 291 328 310 16 9 38 31 49 48 11 18 30 36 43 42 12 5
22 13 22 17 0 5 8 16 18 26 42 41 185 168 197 175 60 34 302 299 470 516 28
36 67 86 87 113 88 113 232 358 212 358 -4 0 1 9 11 20 10 11 14 20 10 20 -5
0 1 10 13 23 22 23 72 123 72 145 0 28 -22 6 -101 -100 -266 -357 -412 -522
-849 -958 -314 -315 -831 -800 -1045 -981 -22 -19 -76 -66 -120 -104 -114
-101 -592 -497 -710 -589 -361 -282 -956 -707 -1280 -915 -71 -46 -202 -130
-290 -187 -282 -184 -436 -278 -720 -442 -210 -120 -815 -440 -995 -525 -58
-27 -143 -67 -190 -89 -115 -54 -452 -178 -665 -245 -424 -134 -605 -168 -885
-167 -193 0 -339 22 -468 70 -69 25 -132 67 -120 79 3 4 48 0 100 -9 561 -95
927 -52 1553 184 392 148 532 210 848 376 529 278 839 451 1072 596 66 41 176
110 245 153 69 43 154 96 190 118 136 83 611 404 800 541 69 49 154 110 190
135 127 88 686 509 745 562 34 30 112 97 174 149 63 52 179 151 258 220 80 69
182 156 226 195 358 305 700 633 861 825 67 79 148 174 182 210 76 81 296 371
382 504 171 263 262 535 262 780 0 130 -19 197 -70 248 -46 47 -67 49 -40 6
56 -93 -10 -394 -132 -594 -72 -120 -170 -236 -338 -403 -177 -175 -408 -387
-415 -379 -2 2 -27 55 -55 118 -122 271 -224 436 -417 680 -125 158 -447 484
-583 591 -355 280 -742 466 -1211 584 -319 80 -537 106 -892 104 -139 -1 -310
-6 -382 -10z m665 -134 c376 -33 614 -85 930 -202 162 -61 497 -225 493 -242
-2 -6 4 -8 12 -5 8 4 15 1 15 -5 0 -6 -3 -10 -7 -9 -5 1 -18 -1 -30 -6 -26 -8
-31 -26 -8 -26 8 0 15 4 15 9 0 13 56 19 75 9 8 -5 12 -14 9 -20 -4 -6 -2 -8
4 -4 10 6 145 -74 157 -94 8 -13 -28 0 -38 14 -5 6 -6 -17 -4 -52 4 -49 10
-69 28 -89 21 -22 16 -21 -31 10 -291 189 -507 296 -830 413 -83 29 -331 98
-433 118 -219 45 -647 67 -900 47 -157 -13 -460 -59 -567 -86 -121 -31 -305
-86 -400 -122 -134 -50 -419 -185 -525 -251 -147 -90 -364 -234 -377 -250 -7
-8 -51 -47 -98 -86 -148 -122 -249 -217 -298 -280 -27 -34 -94 -110 -150 -170
-56 -60 -111 -130 -124 -155 -12 -25 -71 -118 -131 -206 -60 -87 -116 -174
-123 -191 -7 -18 -34 -76 -60 -131 -25 -54 -64 -136 -86 -183 -43 -92 -115
-291 -147 -409 -11 -40 -30 -89 -41 -109 -22 -37 -61 -231 -102 -506 -19 -129
-23 -193 -23 -436 0 -292 14 -445 60 -650 8 -36 24 -108 35 -160 11 -52 22
-106 25 -118 4 -15 2 -21 -5 -17 -5 3 -10 2 -10 -4 0 -5 -16 -26 -36 -45 -31
-30 -35 -40 -29 -63 14 -57 -14 -7 -39 70 -87 267 -173 867 -135 938 8 15 7
24 -3 36 -32 39 4 494 58 738 109 494 250 863 467 1223 382 633 864 1086 1512
1419 211 108 596 238 850 287 319 61 707 80 1045 51z m-226 -277 c-3 -13 -16
-42 -28 -65 l-21 -43 -55 46 c-30 25 -66 51 -80 57 -23 10 -20 12 35 17 33 4
82 7 108 8 46 2 48 1 41 -20z m-477 -25 c-3 -16 -10 -41 -16 -56 -10 -25 -13
-27 -33 -16 -13 7 -38 25 -56 41 -35 30 -35 31 33 47 71 16 78 14 72 -16z
m778 20 l40 -7 -50 -7 c-33 -4 -58 -2 -75 7 -25 13 -25 13 10 13 19 1 53 -2
75 -6z m-623 -20 c15 -14 18 -32 18 -132 -1 -64 -5 -188 -10 -276 -4 -88 -8
-161 -7 -161 1 -1 33 -3 71 -5 l70 -4 66 155 c36 85 92 207 123 271 31 64 57
122 57 128 0 15 12 14 39 -5 20 -15 23 -22 17 -63 -3 -25 -10 -98 -16 -161 -6
-63 -20 -171 -31 -239 -11 -68 -17 -126 -14 -130 4 -3 35 -11 70 -16 l63 -11
29 60 c39 85 203 355 244 404 37 45 53 51 67 26 12 -22 -53 -336 -114 -545 -3
-12 10 -22 47 -38 28 -11 57 -21 63 -21 6 0 33 34 59 75 88 134 288 375 312
375 7 0 20 -9 30 -20 17 -19 17 -22 -8 -77 -14 -32 -47 -123 -73 -203 -26 -80
-57 -166 -70 -192 -13 -26 -24 -54 -24 -63 0 -13 59 -57 93 -71 7 -2 35 25 62
62 59 77 362 367 376 359 5 -4 9 -12 9 -19 0 -7 33 -35 72 -61 82 -54 178
-141 178 -161 0 -49 -71 -5 -168 104 l-69 79 -91 -181 c-50 -100 -109 -212
-132 -250 l-42 -68 29 -36 c53 -65 52 -66 155 34 51 49 163 140 248 202 l155
114 35 -40 c19 -22 73 -70 120 -107 81 -64 130 -111 130 -127 0 -5 -12 -8 -26
-8 -37 0 -102 56 -165 140 -28 39 -55 70 -58 70 -4 0 -40 -52 -81 -115 -93
-143 -157 -231 -228 -313 l-54 -63 27 -39 c15 -22 30 -40 32 -40 14 0 81 35
130 68 32 21 101 63 153 92 52 29 133 78 180 107 47 29 89 53 93 53 4 0 12
-11 17 -24 5 -14 62 -66 127 -116 331 -254 383 -300 341 -300 -7 0 -66 31
-130 68 -88 50 -138 87 -199 147 -44 44 -90 92 -100 107 l-20 28 -71 -83 c-92
-106 -260 -268 -320 -310 -27 -17 -48 -34 -48 -37 1 -3 11 -25 23 -50 15 -30
29 -46 44 -48 12 -2 62 13 110 33 48 20 158 62 243 92 85 30 172 64 193 75 22
11 40 18 41 16 2 -2 7 -10 12 -19 5 -10 55 -52 111 -95 188 -145 294 -236 314
-268 21 -35 25 -76 7 -76 -24 0 -168 118 -287 236 l-125 123 -110 -83 c-126
-94 -253 -178 -341 -227 -33 -18 -61 -33 -62 -34 -7 -4 34 -108 43 -112 7 -2
79 13 161 35 81 22 197 50 257 62 60 12 127 28 149 36 39 14 56 9 57 -18 0 -4
35 -34 78 -66 126 -98 159 -130 143 -141 -21 -14 -54 2 -139 68 l-75 58 -71
-39 c-39 -21 -96 -50 -126 -64 -257 -122 -340 -164 -340 -174 0 -18 22 -105
29 -111 3 -4 44 -1 91 6 118 18 284 28 310 20 21 -7 21 -8 -10 -27 -18 -11
-67 -50 -109 -87 -100 -88 -200 -149 -212 -130 -7 11 -9 10 -9 -5 0 -17 -25
-45 -41 -46 -4 0 -10 16 -13 35 -4 20 -11 33 -17 29 -6 -3 -7 4 -4 19 5 19 2
25 -13 29 -11 3 -19 0 -19 -7 0 -7 6 -11 14 -8 7 3 13 0 13 -6 0 -6 -5 -11
-11 -11 -5 0 -7 -4 -4 -10 9 -15 -11 -12 -27 3 -7 8 -26 12 -41 10 -19 -3 -27
1 -27 12 0 18 -12 19 -28 3 -7 -7 -12 -8 -12 -2 0 6 9 19 21 30 21 19 54 74
45 74 -3 0 -12 -13 -21 -29 -8 -17 -28 -38 -45 -47 -22 -14 -27 -21 -18 -31 8
-10 2 -12 -34 -7 -35 5 -48 2 -63 -12 -18 -19 -18 -19 4 -22 18 -3 20 -6 10
-18 -6 -8 -20 -14 -30 -14 -11 0 -18 -3 -17 -7 1 -5 -2 -25 -6 -45 -5 -24 -2
-69 8 -126 9 -49 14 -97 10 -106 -9 -24 -65 -51 -74 -36 -4 6 -10 46 -14 87
-18 215 -103 505 -216 738 -77 159 -116 221 -241 388 -49 65 -89 121 -89 124
0 4 -9 16 -19 27 -17 18 -18 23 -6 40 13 18 15 17 47 -4 22 -15 11 0 -32 44
-69 71 -142 134 -139 120 4 -25 -4 -34 -30 -34 -17 0 -31 6 -35 16 -3 8 -11
12 -17 8 -7 -4 -10 -3 -7 2 7 11 -17 35 -26 27 -6 -6 -10 13 -7 30 1 5 -3 6
-9 2 -5 -3 -10 -1 -10 4 0 6 -10 11 -22 11 -13 0 -18 4 -12 8 6 4 13 14 16 23
5 13 2 16 -15 11 -12 -3 -27 -12 -33 -20 -9 -12 -13 -12 -19 -2 -6 9 -4 11 5
5 9 -5 11 -4 6 4 -4 6 -12 9 -17 6 -12 -8 -61 30 -51 40 4 3 3 6 -3 5 -25 -5
-46 1 -39 12 4 6 3 8 -4 4 -14 -9 -115 38 -105 49 5 4 3 5 -3 2 -6 -3 -33 2
-60 13 -27 10 -44 19 -39 20 6 0 3 5 -5 10 -8 5 -23 7 -33 4 -22 -7 -109 25
-101 37 3 5 0 9 -5 9 -6 0 -11 -4 -11 -9 0 -4 -23 -2 -52 5 -138 36 -419 53
-588 35 -51 -5 -80 -4 -89 3 -12 9 -13 8 -6 -4 8 -13 5 -13 -15 1 -14 9 -37
19 -52 23 -16 3 -28 11 -28 16 0 15 -26 12 -130 -14 -180 -46 -235 -63 -305
-96 -38 -17 -101 -45 -138 -61 -97 -40 -298 -162 -392 -237 -99 -79 -315 -280
-315 -293 0 -6 6 -7 13 -3 7 4 9 3 4 -2 -5 -5 -14 -9 -20 -9 -7 -1 -11 -6 -9
-13 1 -7 -2 -11 -7 -10 -12 4 -95 -101 -87 -109 3 -4 6 -1 6 5 0 7 5 12 11 12
8 0 8 -5 -1 -15 -7 -8 -16 -13 -20 -10 -8 5 -57 -62 -109 -149 -17 -27 -21
-40 -12 -45 17 -11 3 -39 -22 -43 -17 -2 -38 -35 -94 -148 -83 -166 -117 -256
-98 -264 9 -3 11 3 8 17 -4 17 0 15 20 -11 24 -32 25 -34 9 -63 -12 -20 -18
-24 -20 -13 -2 9 -10 13 -18 10 -8 -3 -14 -1 -14 4 0 6 -4 10 -10 10 -9 0 -50
-119 -50 -146 0 -8 6 -11 15 -8 12 5 15 -3 17 -32 2 -59 -1 -76 -17 -94 -18
-20 -20 -44 -2 -35 6 4 4 0 -7 -9 -10 -8 -16 -19 -12 -24 3 -5 -2 -9 -10 -9
-16 0 -14 37 6 122 16 67 10 74 -10 11 -10 -32 -24 -89 -30 -125 -14 -83 -20
-231 -9 -231 4 0 10 -13 14 -30 4 -16 10 -30 15 -30 4 0 10 -102 13 -227 6
-254 19 -341 80 -519 19 -56 38 -120 42 -142 9 -57 58 -132 82 -126 10 3 81
-7 158 -20 137 -24 141 -25 173 -62 18 -21 43 -57 57 -81 l24 -43 -22 0 c-27
0 -245 46 -279 59 -13 5 -39 27 -57 48 -30 36 -30 34 11 -42 24 -44 70 -119
103 -165 59 -83 271 -303 393 -408 34 -29 62 -60 62 -67 0 -18 -31 -35 -62
-35 -13 0 -61 -14 -108 -31 -47 -17 -134 -48 -195 -68 -60 -21 -134 -50 -163
-65 -55 -28 -186 -78 -236 -90 -27 -7 -28 -6 -21 21 9 37 68 141 110 194 33
42 33 44 17 71 -9 16 -29 40 -43 54 -32 31 -35 30 -159 -61 -105 -77 -224
-157 -268 -179 -29 -15 -33 -15 -38 -1 -13 32 39 127 174 320 46 66 93 128
104 137 19 17 19 18 -19 72 l-38 54 -60 -33 c-132 -73 -360 -185 -377 -185
-46 0 -2 76 147 255 50 61 111 127 134 148 46 42 47 49 9 118 l-20 37 -34 -20
c-53 -31 -407 -149 -417 -139 -16 16 25 74 112 160 94 91 203 187 240 211 23
15 23 18 11 73 -6 31 -13 57 -14 57 -1 0 -22 -7 -47 -15 -24 -8 -125 -28 -224
-44 -181 -29 -194 -29 -195 6 0 28 194 177 332 254 89 50 86 44 72 127 l-5 32
-74 0 c-76 0 -377 20 -383 25 -2 2 1 18 6 36 8 32 16 37 138 91 71 31 168 69
215 84 85 27 87 28 93 63 11 65 7 101 -10 101 -8 0 -88 18 -177 40 -89 21
-182 43 -207 48 -43 7 -45 9 -41 37 1 17 8 33 14 37 17 11 211 56 330 78 59
11 112 22 116 25 10 5 31 84 31 113 0 15 -20 26 -92 51 -51 18 -145 56 -208
85 -93 43 -114 57 -112 72 8 43 22 46 255 57 l226 11 15 35 c31 74 31 78 -16
107 -131 84 -209 140 -262 187 -49 45 -57 57 -51 76 7 22 11 23 69 18 33 -4
102 -13 152 -21 50 -8 122 -18 161 -21 l70 -7 31 51 c18 28 32 57 32 65 0 7
-41 51 -91 96 -50 46 -122 119 -160 162 -59 67 -68 81 -59 98 15 28 43 25 140
-16 80 -33 221 -85 282 -104 26 -8 30 -4 68 56 22 35 40 70 40 79 0 8 -37 54
-81 103 -66 70 -181 227 -192 260 -1 4 5 17 14 30 l16 23 39 -22 c22 -12 109
-64 196 -116 86 -51 160 -93 165 -93 16 0 93 86 93 104 0 10 -31 75 -70 145
-38 70 -88 169 -111 221 l-41 95 22 17 c12 10 26 18 30 18 15 0 295 -278 320
-317 l25 -40 67 59 67 60 -20 52 c-60 152 -144 430 -136 451 3 7 19 17 35 23
l29 10 115 -166 c64 -92 125 -186 137 -209 l21 -42 65 47 c55 39 65 51 61 72
-2 14 -11 68 -20 120 -9 52 -25 164 -34 249 l-18 154 30 18 c17 11 35 18 39
16 16 -5 197 -438 197 -471 0 -21 4 -21 85 14 67 28 70 30 69 62 -1 18 -2 148
-3 288 -1 234 0 256 16 268 10 7 29 12 42 10 27 -3 37 -38 115 -372 19 -81 37
-150 40 -153 2 -2 39 7 83 20 l78 25 7 118 c6 104 16 176 58 422 11 67 15 72
50 72 36 0 33 13 64 -318 13 -139 25 -254 27 -256 2 -2 35 -1 74 3 l70 6 18
88 c16 78 135 446 158 490 12 21 27 22 51 0z m818 -13 c12 0 18 -4 15 -10 -4
-6 6 -10 22 -11 l28 -1 -25 -8 c-14 -4 -37 -11 -52 -14 -14 -3 -40 -17 -56
-31 -17 -14 -35 -25 -41 -25 -17 0 -81 44 -81 55 0 11 82 52 115 58 11 2 28 0
37 -5 9 -4 26 -8 38 -8z m-1441 -97 c-1 -87 -6 -90 -72 -42 -32 22 -56 43 -53
46 5 6 105 41 119 42 4 1 7 -20 6 -46z m1651 38 c-1 -9 -42 -37 -66 -45 -14
-4 -26 0 -38 13 -18 19 -17 20 10 26 16 4 34 8 39 9 19 6 55 3 55 -3z m-362
-110 c27 -11 44 -31 27 -31 -16 0 -81 33 -120 61 -65 47 -63 63 3 20 31 -21
72 -43 90 -50z m532 59 c0 -20 -104 -70 -139 -68 -53 4 -49 25 11 53 53 25
128 34 128 15z m120 -70 c0 -11 -70 -40 -95 -40 -32 0 -32 11 2 32 25 15 93
21 93 8z m-310 -70 c86 -58 98 -69 84 -83 -13 -12 -58 21 -183 131 -44 40 2
17 99 -48z m568 47 l22 -13 -27 -26 c-37 -34 -140 -88 -169 -88 -16 0 -28 10
-39 30 l-15 29 72 34 c111 53 119 54 156 34z m-2634 -71 c-4 -36 -10 -66 -13
-66 -3 0 -24 15 -45 33 -25 22 -37 39 -34 49 6 14 88 61 95 54 2 -2 1 -33 -3
-70z m2739 -35 c-2 -6 0 -10 5 -10 4 1 18 1 32 0 24 -1 23 -2 -10 -25 -19 -13
-58 -35 -86 -50 -45 -23 -55 -25 -78 -15 -14 7 -26 15 -26 18 0 3 33 27 73 53
69 45 95 53 90 29z m-265 -140 c37 -31 76 -63 87 -69 19 -11 19 -11 -3 -12
-37 0 -73 24 -147 100 -57 59 -64 69 -37 56 18 -9 63 -43 100 -75z m1002 2 c0
-2 -20 10 -45 28 -25 18 -45 36 -45 41 0 5 20 -7 45 -28 25 -20 45 -38 45 -41z
m-571 47 c-13 -10 -20 -19 -14 -20 16 0 -93 -70 -109 -70 -22 0 -30 19 -15 36
20 25 104 69 134 72 l27 2 -23 -20z m-3307 -102 c3 -51 4 -94 3 -96 -4 -6
-139 74 -142 85 -4 11 111 103 128 103 4 0 9 -42 11 -92z m3490 14 c-7 -20
-19 -30 -88 -72 -51 -31 -52 -31 -90 -15 -47 19 -42 25 71 89 72 40 82 43 97
29 10 -8 14 -22 10 -31z m401 -98 c27 -18 46 -24 63 -20 13 4 33 1 43 -6 26
-16 38 -4 17 17 -21 22 -20 31 2 14 22 -18 97 -94 141 -144 28 -32 30 -35 7
-15 -16 14 -41 37 -57 53 -28 28 -49 35 -49 17 0 -5 -6 -10 -14 -10 -31 0 -24
-40 17 -90 22 -27 44 -50 47 -50 7 0 60 -75 60 -84 0 -3 -49 47 -109 112 -59
64 -134 143 -165 175 -61 62 -62 72 -3 31z m-257 5 c-10 15 7 14 22 -1 19 -19
15 -24 -45 -67 -67 -49 -122 -56 -147 -19 -8 12 -13 25 -10 30 8 13 83 49 113
55 14 2 27 6 30 8 2 2 13 0 24 -6 14 -8 18 -8 13 0z m184 -122 c0 -10 -62 -62
-145 -122 -14 -9 -55 18 -55 36 0 10 92 79 135 101 31 17 65 9 65 -15z m-4201
-39 c18 -100 20 -118 13 -118 -23 0 -91 25 -115 42 l-29 21 53 53 c29 30 57
54 60 54 4 0 12 -24 18 -52z m4285 -67 c16 -18 15 -20 -33 -55 -39 -29 -58
-37 -83 -34 -53 5 -44 35 22 75 64 38 71 39 94 14z m62 -135 c-8 -19 -12 -36
-10 -39 2 -2 -5 -12 -17 -23 -21 -19 -21 -19 -40 5 -24 30 -21 40 21 69 50 33
64 30 46 -12z m-4660 -192 c13 -35 21 -64 17 -64 -27 0 -145 44 -150 56 -3 9
5 27 19 42 14 15 34 40 43 55 l18 29 15 -27 c7 -15 24 -56 38 -91z m4848 20
c27 -10 18 -27 -36 -67 -52 -37 -52 -37 -72 -18 -17 17 -18 22 -5 37 17 21 70
54 86 54 6 0 18 -3 27 -6z m84 -117 c4 -21 -69 -70 -100 -65 -42 6 -32 32 24
60 58 29 71 30 76 5z m-3038 -319 l13 -168 26 0 c73 1 83 15 165 225 26 65 51
124 57 131 11 14 54 7 70 -12 8 -10 7 -51 -5 -159 -9 -80 -16 -163 -16 -184 0
-37 2 -39 40 -49 l39 -10 69 112 c39 61 84 140 102 176 18 36 33 66 34 67 3 4
86 -39 86 -44 0 -9 -32 -119 -66 -227 -42 -131 -41 -148 6 -158 33 -7 37 -5
88 50 29 31 79 93 110 136 31 43 69 88 84 99 26 19 28 19 53 3 14 -9 29 -24
32 -33 3 -8 -26 -78 -67 -162 -108 -217 -105 -206 -74 -230 15 -12 33 -21 41
-21 15 0 109 79 230 194 62 59 76 67 98 62 14 -4 31 -17 37 -31 14 -32 -13
-78 -124 -209 -125 -148 -121 -142 -106 -166 18 -28 43 -34 76 -17 168 87 274
145 309 169 51 34 57 35 71 3 10 -21 9 -32 -2 -53 -21 -41 -165 -174 -245
-228 -39 -26 -71 -51 -71 -56 0 -23 32 -68 49 -68 27 0 230 66 321 105 76 31
81 32 90 15 28 -52 -13 -97 -190 -204 -149 -91 -152 -94 -144 -133 5 -25 12
-33 28 -33 37 0 322 49 352 60 24 10 30 8 45 -11 37 -49 -6 -86 -169 -150
-178 -69 -192 -79 -192 -132 0 -49 5 -49 176 -32 151 16 159 16 171 -1 20 -28
15 -61 -13 -83 -27 -22 -55 -32 -212 -83 -66 -20 -107 -39 -114 -51 -14 -27 0
-75 24 -83 11 -3 83 -3 158 1 114 6 142 5 159 -7 21 -15 19 -16 -36 -55 -79
-55 -144 -87 -233 -113 -94 -29 -103 -36 -97 -76 6 -37 -6 -52 -47 -60 -23 -4
-26 -1 -26 23 1 16 8 55 16 88 9 33 19 139 24 235 7 158 6 183 -12 255 -11 44
-26 112 -33 150 -6 39 -17 81 -23 95 -6 14 -20 57 -31 95 -21 73 -63 148 -111
200 -15 17 -58 71 -94 120 -123 165 -226 254 -389 337 -237 119 -506 163 -747
122 -112 -19 -298 -81 -395 -132 -195 -102 -445 -344 -531 -514 -30 -59 -108
-277 -135 -378 -24 -90 -49 -279 -49 -370 0 -67 22 -243 40 -323 11 -50 84
-238 107 -276 136 -221 286 -385 439 -478 87 -53 249 -128 383 -178 47 -17 87
-37 89 -43 2 -6 -15 -16 -38 -23 -36 -11 -48 -10 -88 5 -84 33 -84 33 -127
-30 -37 -53 -207 -214 -226 -214 -14 0 -11 14 30 159 56 194 57 197 30 211
-63 34 -75 32 -133 -28 -30 -31 -79 -88 -108 -127 -50 -65 -57 -70 -96 -73
-34 -3 -42 0 -42 14 0 9 29 78 64 153 99 212 102 227 37 249 -24 8 -38 3 -112
-42 -47 -28 -111 -70 -142 -94 -73 -54 -83 -58 -96 -33 -19 35 -12 53 72 170
131 183 132 185 101 230 -20 28 -54 25 -141 -13 -32 -13 -97 -40 -146 -59 -83
-33 -88 -34 -97 -17 -6 10 -10 32 -10 49 0 27 15 43 114 126 63 52 122 105
130 117 23 33 20 57 -9 64 -27 7 -301 -11 -327 -21 -18 -7 -22 2 -32 76 l-4
36 121 52 c164 69 187 83 187 120 0 22 -6 30 -23 35 -25 6 -271 36 -299 36
-15 0 -18 9 -18 53 l0 53 134 38 c134 38 176 61 176 98 0 25 -20 36 -156 79
-71 22 -133 44 -137 49 -5 4 -6 28 -2 53 l7 45 145 7 c156 8 173 14 188 72 8
34 -2 44 -137 134 l-117 79 18 42 c22 51 25 51 184 17 116 -26 126 -24 155 23
16 26 15 27 -47 93 -91 97 -142 165 -134 178 24 43 47 67 63 67 11 0 46 -14
79 -30 33 -17 85 -39 116 -50 l55 -19 35 31 c19 16 35 38 35 47 0 9 -21 50
-47 91 -43 70 -103 190 -103 207 0 5 20 15 45 24 l46 17 55 -58 c30 -32 75
-68 99 -81 43 -23 45 -23 80 -6 19 9 38 24 42 32 3 9 -13 87 -36 174 -22 87
-41 162 -41 168 0 15 92 46 99 34 3 -5 35 -61 71 -125 38 -69 71 -116 80 -116
8 0 34 9 58 20 l42 19 0 179 0 180 39 10 c40 10 40 9 55 -28 8 -20 26 -80 40
-132 43 -162 48 -167 121 -132 42 19 47 35 80 222 15 81 29 150 33 154 15 14
77 13 83 -2 4 -8 12 -90 19 -182z m-2184 58 c19 -37 33 -70 30 -73 -10 -10
-148 19 -153 33 -3 7 12 41 32 75 42 68 37 70 91 -35z m5284 30 c0 -3 -4 -8
-10 -11 -5 -3 -10 -1 -10 4 0 6 5 11 10 11 6 0 10 -2 10 -4z m105 -166 c11
-12 15 -26 10 -37 -6 -16 -9 -15 -30 11 -34 42 -16 66 20 26z m-4685 -155 c-7
-8 -17 -15 -23 -15 -5 0 -2 9 8 20 21 23 35 19 15 -5z m-955 -92 c25 -37 45
-73 45 -80 0 -20 -149 -18 -157 2 -5 14 52 145 62 145 3 0 25 -30 50 -67z
m5766 25 c-7 -34 -31 -51 -31 -22 0 14 26 54 35 54 1 0 0 -14 -4 -32z m-1951
-60 c0 -13 -4 -10 -50 39 l-45 46 48 -39 c26 -21 47 -42 47 -46z m-1195 57
c50 -9 112 -20 139 -27 89 -20 312 -118 269 -118 -7 0 -15 5 -18 10 -12 19
-23 10 -20 -15 3 -29 1 -29 -28 -13 -12 7 -33 13 -47 15 -16 2 -5 -7 30 -24
30 -16 66 -36 80 -45 14 -9 37 -20 53 -23 15 -4 27 -13 27 -21 0 -8 3 -14 8
-14 9 0 72 -55 72 -63 0 -4 -30 16 -66 44 -129 97 -316 176 -483 204 -138 23
-353 17 -461 -14 -224 -65 -518 -266 -655 -451 -35 -47 -75 -105 -90 -130 -27
-46 -27 -46 -9 38 3 15 17 42 32 61 14 19 19 31 11 26 -10 -6 -9 -3 2 11 9 10
24 33 32 49 26 50 157 191 239 258 156 127 288 185 549 242 86 18 224 18 334
0z m3205 11 c0 -2 -7 -6 -15 -10 -8 -3 -15 -1 -15 4 0 6 7 10 15 10 8 0 15 -2
15 -4z m-5024 -165 c-9 -10 -16 -26 -16 -36 0 -14 -3 -16 -11 -8 -13 13 17 77
32 67 7 -4 5 -12 -5 -23z m1865 -44 c300 -77 516 -251 653 -524 85 -167 130
-415 108 -590 -27 -214 -101 -424 -203 -575 -50 -74 -163 -189 -247 -251 -87
-64 -297 -156 -412 -179 -119 -25 -300 -19 -430 13 -262 65 -507 263 -629 508
-86 171 -115 306 -115 526 0 146 3 170 31 276 52 198 134 346 264 484 171 180
376 291 618 336 80 14 257 3 362 -24z m1283 -13 c3 -8 2 -12 -4 -9 -6 3 -10
10 -10 16 0 14 7 11 14 -7z m-3204 -54 c0 -5 -2 -10 -4 -10 -3 0 -8 5 -11 10
-3 6 -1 10 4 10 6 0 11 -4 11 -10z m3260 -10 c13 -11 19 -20 13 -20 -5 0 -18
9 -28 20 -10 11 -16 20 -13 20 3 0 15 -9 28 -20z m-4179 -192 c21 -33 36 -64
33 -69 -6 -10 -134 -13 -134 -3 0 26 44 143 52 138 5 -4 27 -33 49 -66z m854
6 c-10 -20 -15 -23 -15 -11 0 16 21 49 28 42 1 -1 -4 -15 -13 -31z m3455 -60
c0 -2 -13 2 -30 11 -16 9 -30 20 -30 26 0 6 14 1 30 -11 17 -12 30 -23 30 -26z
m-2771 -312 c-39 -112 -67 -253 -78 -401 -5 -67 -11 -124 -13 -127 -3 -2 -8
38 -12 90 -6 96 -1 190 14 236 4 14 13 45 20 70 7 25 15 52 18 60 3 8 7 23 8
32 5 23 65 130 70 125 2 -1 -10 -40 -27 -85z m2844 29 c15 -8 27 -18 27 -23 0
-13 -63 16 -68 31 -3 8 -1 12 4 9 5 -2 21 -10 37 -17z m-4518 -131 c32 -32 36
-42 26 -54 -14 -17 -75 -39 -94 -34 -17 4 -1 128 17 128 6 0 29 -18 51 -40z
m5295 -204 c0 -3 -4 -8 -10 -11 -5 -3 -10 -1 -10 4 0 6 5 11 10 11 6 0 10 -2
10 -4z m383 -141 c-62 -71 -143 -132 -143 -108 0 22 149 162 173 163 14 0 7
-14 -30 -55z m-5722 -114 c33 -33 37 -56 12 -64 -10 -3 -33 -15 -50 -27 l-33
-22 0 49 c0 98 19 115 71 64z m5564 -21 c3 -5 2 -10 -4 -10 -5 0 -13 5 -16 10
-3 6 -2 10 4 10 5 0 13 -4 16 -10z m-3821 -435 c10 -15 16 -29 14 -31 -5 -5
-58 74 -58 87 0 5 -9 26 -20 46 -11 21 -20 56 -20 78 1 36 4 30 34 -57 18 -53
40 -108 50 -123z m-1737 -31 c38 -41 35 -51 -26 -87 l-31 -18 0 70 c0 46 4 71
11 71 7 0 27 -16 46 -36z m1019 -346 c6 -4 20 -6 30 -2 17 5 17 4 3 -5 -18
-12 -79 4 -79 20 0 9 28 2 46 -13z m77 -25 c-7 -2 -19 -2 -25 0 -7 3 -2 5 12
5 14 0 19 -2 13 -5z m155 -385 c-3 -14 5 -14 36 -2 15 6 17 4 11 -6 -6 -10 -3
-12 13 -8 12 4 22 2 22 -4 0 -6 11 -7 25 -4 22 6 25 3 25 -18 0 -14 8 -29 17
-35 34 -19 3 -24 -71 -11 -83 14 -128 44 -119 80 6 21 45 29 41 8z m227 -58
c3 -5 2 -10 -4 -10 -5 0 -12 -8 -14 -17 -3 -11 -5 -7 -6 10 -1 27 12 36 24 17z
m61 -35 c15 -20 25 -37 23 -38 -2 -2 -29 2 -59 9 -30 6 -47 12 -37 13 10 0 16
5 13 10 -3 5 1 12 10 15 8 3 12 10 9 16 -3 5 -2 10 4 10 5 0 22 -16 37 -35z
m-1351 -84 c-10 -16 -25 -3 -25 22 0 20 1 20 16 5 9 -9 13 -21 9 -27z m-271
-27 c3 -8 2 -12 -4 -9 -6 3 -10 10 -10 16 0 14 7 11 14 -7z m1602 -4 c42 -11
89 -22 106 -24 34 -4 101 -55 107 -81 3 -16 -2 -17 -45 -11 -68 9 -145 36
-138 47 4 7 -9 8 -33 5 -21 -4 -31 -3 -23 1 19 10 24 33 8 33 -9 0 -8 4 2 10
11 8 8 9 -12 4 -18 -4 -28 -2 -28 5 0 6 -10 11 -22 10 -22 0 -22 -1 -3 -9 11
-5 16 -9 10 -9 -5 -1 -4 -5 4 -10 9 -6 10 -11 2 -15 -6 -4 -11 -3 -11 3 0 6
-10 15 -22 22 -18 10 -20 9 -14 -6 6 -16 4 -16 -11 -4 -28 22 -43 37 -43 43 0
13 95 5 166 -14z m-351 -840 c-3 -5 -14 -10 -23 -10 -15 0 -15 2 -2 10 20 13
33 13 25 0z m-255 -601 c0 -5 5 -7 10 -4 6 3 10 2 10 -3 0 -6 -18 -9 -40 -9
-22 1 -40 5 -40 9 0 6 11 9 53 17 4 0 7 -4 7 -10z m-93 -25 c-3 -3 -12 -4 -19
-1 -8 3 -5 6 6 6 11 1 17 -2 13 -5z m-162 -55 c18 -9 18 -9 -4 -5 -13 3 -33 1
-45 -3 -11 -5 -43 -11 -71 -14 -45 -5 -44 -4 20 13 84 21 76 21 100 9z m-195
-39 c-34 -11 -60 -11 -35 0 11 5 29 8 40 8 16 0 15 -2 -5 -8z m-557 -47 c-7
-2 -19 -2 -25 0 -7 3 -2 5 12 5 14 0 19 -2 13 -5z"/>
<path d="M6773 8384 c-3 -9 0 -19 6 -24 7 -4 11 -15 9 -25 -2 -10 2 -20 7 -21
6 -3 9 14 7 41 -4 45 -17 59 -29 29z"/>
<path d="M4570 7813 c-22 -20 -33 -40 -37 -70 -5 -37 -2 -45 25 -73 45 -44
101 -43 148 4 26 26 34 42 34 71 0 85 -104 127 -170 68z m95 -94 c0 -8 -10
-15 -22 -17 -25 -4 -33 22 -10 31 18 8 32 2 32 -14z"/>
<path d="M5082 7800 c-28 -12 -56 -74 -47 -107 10 -39 41 -63 84 -63 76 0 121
98 68 148 -27 26 -73 35 -105 22z"/>
<path d="M4055 7729 c-36 -21 -55 -53 -55 -96 0 -55 7 -71 41 -88 41 -22 73
-18 108 10 55 47 61 115 13 158 -25 23 -81 31 -107 16z"/>
<path d="M5433 7700 c-29 -17 -33 -25 -33 -63 0 -53 22 -76 78 -84 55 -7 92
27 92 86 0 71 -70 102 -137 61z"/>
<path d="M4687 7523 c-17 -16 -5 -33 23 -33 20 0 30 5 30 15 0 8 -5 15 -11 15
-5 0 -7 -4 -4 -10 3 -6 -1 -7 -9 -4 -9 3 -13 10 -10 15 6 10 -9 12 -19 2z"/>
<path d="M5108 7523 c7 -3 16 -2 19 1 4 3 -2 6 -13 5 -11 0 -14 -3 -6 -6z"/>
<path d="M5180 7510 c14 -4 34 -8 45 -8 16 0 15 2 -5 8 -14 4 -34 8 -45 8 -16
0 -15 -2 5 -8z"/>
<path d="M5869 7505 c-32 -18 -53 -66 -45 -101 11 -44 59 -84 101 -84 49 0 71
13 84 51 13 39 0 98 -28 123 -26 24 -81 29 -112 11z m81 -95 c0 -12 -47 -36
-55 -28 -3 3 -3 13 1 22 7 17 54 23 54 6z"/>
<path d="M5258 7493 c7 -3 16 -2 19 1 4 3 -2 6 -13 5 -11 0 -14 -3 -6 -6z"/>
<path d="M3523 7480 c-52 -21 -76 -114 -43 -167 17 -29 25 -33 63 -33 34 0 50
6 70 26 39 39 52 86 33 123 -28 54 -71 72 -123 51z"/>
<path d="M6260 7183 c-65 -24 -81 -103 -31 -154 41 -40 75 -38 118 8 31 32 35
41 30 76 -3 21 -13 47 -23 58 -17 18 -61 24 -94 12z"/>
<path d="M3105 7155 c-37 -36 -35 -97 5 -137 25 -24 36 -29 58 -23 60 15 101
79 81 126 -24 60 -101 78 -144 34z"/>
<path d="M5920 7171 c0 -5 7 -12 16 -15 14 -5 15 -4 4 9 -14 17 -20 19 -20 6z"/>
<path d="M6180 6915 c13 -14 26 -25 28 -25 3 0 -5 11 -18 25 -13 14 -26 25
-28 25 -3 0 5 -11 18 -25z"/>
<path d="M2849 6871 c-23 -24 -29 -38 -29 -74 0 -38 5 -49 31 -71 33 -28 58
-32 92 -15 37 19 57 52 57 96 0 34 -5 46 -31 67 -41 35 -83 34 -120 -3z"/>
<path d="M6504 6880 c-61 -25 -82 -107 -40 -156 56 -65 156 -13 156 80 0 44
-18 76 -43 76 -7 0 -21 2 -32 5 -11 2 -30 0 -41 -5z"/>
<path d="M2660 6585 c-32 -17 -49 -53 -50 -102 0 -34 5 -46 31 -67 30 -25 81
-34 105 -18 24 17 44 59 44 94 0 67 -76 122 -130 93z"/>
<path d="M6649 6511 c-57 -58 -30 -151 44 -151 54 1 97 49 97 109 0 71 -86 96
-141 42z"/>
<path d="M2482 6208 c-49 -53 -51 -116 -5 -162 59 -59 153 -1 153 94 0 73
-100 118 -148 68z"/>
<path d="M6795 6179 c-73 -42 -82 -84 -31 -135 51 -51 96 -44 136 21 14 23 20
44 16 59 -11 43 -84 76 -121 55z"/>
<path d="M7193 6123 c9 -2 23 -2 30 0 6 3 -1 5 -18 5 -16 0 -22 -2 -12 -5z"/>
<path d="M6803 5983 c9 -2 23 -2 30 0 6 3 -1 5 -18 5 -16 0 -22 -2 -12 -5z"/>
<path d="M2377 5772 c-10 -10 -17 -24 -17 -31 0 -28 32 -78 59 -94 29 -17 29
-17 60 18 37 43 39 68 6 100 -30 31 -84 34 -108 7z"/>
<path d="M2314 5216 c-49 -49 -42 -111 15 -141 41 -21 55 -19 91 12 43 36 53
66 36 108 -27 64 -89 74 -142 21z"/>
<path d="M2373 4852 c-32 -5 -63 -49 -63 -89 0 -45 14 -69 50 -88 26 -14 34
-14 64 -1 37 15 66 59 66 99 0 26 -44 72 -75 78 -11 3 -30 3 -42 1z"/>
<path d="M2437 4509 c-19 -11 -47 -67 -47 -93 0 -8 12 -28 26 -45 19 -23 34
-31 59 -31 67 0 110 97 68 149 -21 25 -80 36 -106 20z"/>
<path d="M2576 4148 c-21 -32 -29 -74 -22 -103 7 -26 59 -65 86 -65 48 1 96
89 78 142 -13 35 -35 48 -87 48 -31 0 -44 -5 -55 -22z"/>
<path d="M2800 3847 c-29 -15 -50 -51 -50 -89 0 -33 42 -68 82 -68 71 0 108
105 52 149 -31 24 -49 26 -84 8z"/>
<path d="M3125 3690 c21 -25 62 -63 90 -84 56 -44 51 -39 -55 60 -53 49 -63
56 -35 24z"/>
<path d="M2965 3628 c-54 -29 -61 -83 -14 -122 36 -30 89 -35 114 -9 44 43 37
101 -14 128 -35 18 -58 19 -86 3z"/>
<path d="M3310 3526 c0 -2 8 -10 18 -17 15 -13 16 -12 3 4 -13 16 -21 21 -21
13z"/>
<path d="M7445 7890 c-3 -5 -1 -10 4 -10 6 0 11 5 11 10 0 6 -2 10 -4 10 -3 0
-8 -4 -11 -10z"/>
<path d="M4150 4020 c0 -5 5 -10 10 -10 6 0 10 5 10 10 0 6 -4 10 -10 10 -5 0
-10 -4 -10 -10z"/>
<path d="M4564 6410 c-33 -13 -54 -50 -54 -93 0 -31 7 -46 34 -73 28 -28 42
-34 76 -34 36 0 48 6 76 36 86 91 -12 213 -132 164z m79 -92 c6 -19 -3 -38
-18 -38 -18 0 -28 17 -21 35 7 18 33 20 39 3z"/>
<path d="M4475 6175 c-153 -33 -293 -111 -405 -224 -144 -146 -193 -255 -213
-471 -14 -161 -12 -216 13 -309 38 -136 83 -217 175 -307 146 -145 297 -205
520 -208 126 -1 190 16 330 87 62 32 102 63 176 137 85 84 102 107 147 200 59
121 79 192 88 311 20 263 -131 568 -341 690 -165 96 -333 128 -490 94z m260
-90 c209 -44 369 -199 457 -442 29 -82 36 -256 14 -356 -29 -131 -123 -297
-216 -380 -130 -118 -320 -186 -480 -172 -93 8 -192 32 -245 58 -103 51 -213
166 -270 282 -55 110 -68 180 -63 320 9 211 75 363 221 509 163 163 366 226
582 181z"/>
<path d="M4432 5960 c-157 -55 -247 -132 -330 -281 -53 -93 -66 -158 -67 -314
l0 -140 45 -90 c99 -196 265 -304 470 -306 159 -1 291 53 403 165 67 67 108
136 153 256 26 68 28 87 29 210 l0 135 -42 86 c-33 68 -56 99 -115 155 -87 82
-153 120 -245 139 -111 24 -205 19 -301 -15z m680 -447 c6 -120 -18 -238 -74
-352 -31 -66 -57 -102 -118 -162 -85 -85 -124 -104 -147 -73 -31 42 -46 125
-41 226 4 88 9 106 41 172 39 78 96 145 146 171 38 19 127 43 164 44 23 1 27
-3 29 -26z m-698 -312 c17 -7 26 -7 29 2 3 9 8 9 20 -1 9 -8 20 -11 26 -8 5 4
15 0 23 -7 7 -8 33 -20 57 -28 50 -16 67 -39 28 -39 -26 0 -277 77 -277 85 0
9 68 5 94 -4z m14 -164 c6 3 12 1 12 -4 0 -6 6 -10 13 -10 25 0 123 -33 155
-53 42 -26 41 -41 -3 -28 -19 6 -31 16 -28 21 3 6 1 7 -6 3 -11 -7 -56 5 -176
47 -52 18 -56 22 -35 28 14 3 32 3 40 -1 8 -4 21 -5 28 -3z"/>
<path d="M3671 5539 c-64 -60 -51 -174 23 -199 75 -24 136 26 136 112 0 41 -5
54 -29 79 -37 36 -95 40 -130 8z m87 -101 c-2 -13 -10 -23 -18 -23 -8 0 -16
10 -18 23 -3 17 2 22 18 22 16 0 21 -5 18 -22z"/>
<path d="M5369 5519 c-39 -42 -42 -117 -5 -154 29 -28 81 -40 118 -26 63 24
77 142 23 188 -40 35 -99 32 -136 -8z m99 -86 c2 -8 -5 -13 -17 -13 -12 0 -21
6 -21 16 0 18 31 15 38 -3z"/>
<path d="M4534 4616 c-43 -19 -64 -53 -64 -102 0 -75 59 -117 140 -99 39 9 70
56 70 108 0 51 -15 76 -55 93 -42 17 -51 17 -91 0z m70 -101 c4 -13 -20 -35
-38 -35 -8 0 -7 35 1 43 11 12 31 8 37 -8z"/>
<path d="M6983 8940 c-69 -28 -49 -140 25 -140 66 0 97 89 46 129 -29 23 -38
24 -71 11z"/>
<path d="M9595 6998 c-26 -14 -175 -167 -175 -179 0 -16 15 -10 28 12 8 13 19
18 29 15 16 -6 32 6 114 87 37 37 56 74 24 47 -18 -15 -20 1 -3 18 15 15 9 15
-17 0z m-55 -88 c0 -5 -5 -10 -11 -10 -5 0 -7 5 -4 10 3 6 8 10 11 10 2 0 4
-4 4 -10z m-32 -32 c-2 -6 -10 -14 -16 -16 -7 -2 -10 2 -6 12 7 18 28 22 22 4z"/>
<path d="M9529 6568 c-79 -73 -75 -72 -71 -33 2 19 1 35 -2 35 -34 0 -401
-342 -401 -374 0 -6 -5 -11 -12 -11 -7 0 -18 -6 -24 -12 -7 -7 -9 -13 -5 -13
5 0 3 -6 -4 -14 -6 -8 -18 -12 -26 -9 -8 3 -17 -3 -20 -13 -4 -11 -15 -28 -25
-39 -33 -35 -65 -79 -72 -97 -3 -10 -10 -18 -16 -18 -5 0 -11 -9 -14 -20 -3
-11 -13 -23 -22 -26 -18 -7 -98 -84 -88 -84 12 0 79 56 193 160 64 58 158 143
210 190 52 47 122 110 155 141 33 30 106 95 162 143 57 48 107 96 113 106 15
27 10 25 -31 -12z"/>
<path d="M8930 6314 c-41 -38 -130 -146 -130 -159 0 -12 124 106 154 147 38
52 27 58 -24 12z"/>
<path d="M9390 6164 c-41 -36 -74 -70 -73 -75 2 -4 -3 -6 -10 -3 -7 2 -27 -10
-44 -28 -17 -18 -41 -41 -54 -50 -13 -10 -20 -18 -16 -18 4 0 -7 -14 -25 -30
-19 -19 -38 -28 -47 -25 -8 3 -12 3 -8 -1 4 -4 -3 -12 -16 -19 -12 -6 -21 -17
-19 -24 1 -7 -2 -10 -7 -6 -6 3 -63 -42 -128 -101 -65 -58 -143 -125 -173
-149 -30 -23 -54 -47 -53 -53 1 -5 3 -37 4 -70 l2 -61 85 77 c46 42 144 131
216 197 72 66 167 150 211 187 97 81 151 137 147 155 -2 8 3 10 12 7 9 -3 26
5 41 22 27 29 32 44 13 44 -9 0 -8 3 1 13 11 10 14 10 18 0 9 -25 23 -12 16
15 -3 15 -6 35 -5 45 0 9 -2 17 -6 17 -4 0 -41 -30 -82 -66z"/>
<path d="M8347 5947 c-82 -84 -212 -210 -289 -282 -77 -71 -184 -170 -237
-220 -53 -49 -155 -142 -226 -205 -71 -63 -166 -149 -210 -191 -113 -104 -695
-588 -859 -713 -50 -38 -127 -99 -172 -135 -45 -36 -110 -86 -145 -111 -35
-25 -154 -113 -264 -195 -455 -343 -1146 -796 -1630 -1070 -66 -37 -136 -77
-155 -88 -19 -11 -82 -46 -140 -77 -58 -31 -145 -81 -195 -110 -208 -123 -487
-266 -632 -323 -49 -20 -135 -58 -193 -85 -88 -42 -98 -50 -65 -45 34 4 49 -1
103 -36 199 -129 458 -250 717 -334 295 -96 479 -138 785 -179 199 -26 633
-32 785 -10 495 71 759 150 1140 342 540 272 988 661 1363 1185 211 295 467
795 570 1115 115 352 182 791 182 1180 0 139 -32 583 -46 649 -11 50 -26 91
-32 91 -4 -1 -74 -69 -155 -153z m-214 -402 c-10 -7 -22 -11 -28 -7 -5 3 -4
-2 4 -11 7 -10 21 -16 30 -15 9 2 15 -2 14 -9 -2 -7 4 -10 12 -7 18 7 19 26 3
42 -9 9 -8 12 5 12 13 0 17 -9 17 -35 0 -29 -4 -35 -21 -35 -24 0 -99 39 -99
52 0 12 53 36 67 31 10 -4 9 -9 -4 -18z m-160 -259 c38 -22 75 -35 113 -40 75
-9 94 -20 94 -55 0 -26 -3 -29 -41 -33 -55 -5 -119 13 -214 60 -44 22 -90 43
-102 46 -27 9 -30 31 -5 45 36 21 97 12 155 -23z m464 -118 c-2 -18 -4 -4 -4
32 0 36 2 50 4 33 2 -18 2 -48 0 -65z m-97 -108 c11 0 20 -5 20 -10 0 -6 11
-8 25 -4 17 4 25 2 26 -7 0 -8 4 -5 9 6 l9 20 0 -20 c4 -99 -55 -449 -114
-685 -85 -337 -352 -895 -583 -1216 -219 -306 -522 -624 -757 -794 -33 -24
-54 -37 -47 -28 7 9 9 24 5 34 -6 17 -5 18 13 5 10 -8 -1 7 -26 33 l-45 48 45
36 c112 92 315 279 369 340 288 325 457 575 652 963 158 315 295 761 337 1104
6 44 16 130 24 190 13 106 13 108 16 48 3 -55 6 -63 22 -63z m-561 71 c48 -22
124 -53 168 -71 120 -46 133 -59 133 -130 0 -78 -13 -88 -76 -54 -27 14 -114
60 -194 101 -120 62 -176 96 -219 130 -11 9 55 63 77 63 13 0 64 -18 111 -39z
m-270 -291 c8 0 35 -13 60 -29 25 -16 100 -53 166 -82 66 -28 127 -57 135 -63
8 -7 44 -25 80 -41 90 -39 92 -40 89 -101 -2 -32 3 -59 10 -68 12 -14 10 -16
-10 -16 -13 0 -49 11 -79 24 -330 142 -436 195 -447 223 -3 9 -8 11 -12 4 -4
-6 -63 -7 -181 0 -96 6 -176 11 -177 13 -5 5 78 58 93 60 7 1 17 6 21 11 4 4
1 5 -7 1 -8 -4 -6 0 4 8 11 9 16 16 11 16 -5 0 -4 5 3 12 8 8 15 8 28 -3 10
-8 15 -9 11 -2 -4 7 1 14 13 18 11 3 20 11 20 16 0 13 -14 11 -29 -3 -20 -19
-4 11 21 38 l19 21 72 -28 c40 -16 78 -28 86 -29z m602 -52 c49 -14 50 -35 2
-54 -57 -24 -118 -23 -144 3 l-21 21 23 13 c13 7 40 16 59 20 19 4 37 7 39 8
2 0 21 -4 42 -11z m-1111 -225 c14 -7 84 -37 155 -67 72 -30 204 -90 295 -134
190 -91 384 -174 453 -192 45 -12 47 -14 47 -49 0 -20 -5 -53 -11 -74 -9 -33
-13 -37 -32 -31 -26 8 -299 118 -412 167 -93 39 -100 41 -247 67 -61 11 -167
36 -235 55 -68 20 -131 34 -138 31 -16 -6 -55 -77 -55 -100 0 -8 45 -47 99
-85 54 -39 122 -96 150 -128 32 -36 61 -58 77 -60 40 -6 184 -53 229 -75 22
-11 102 -44 178 -74 147 -58 187 -79 187 -98 0 -7 -7 -35 -15 -64 l-15 -51
-48 19 c-26 10 -87 33 -137 51 -49 17 -137 55 -195 84 -134 67 -206 95 -355
139 -66 19 -158 51 -204 70 -45 20 -87 36 -91 36 -5 0 -22 -21 -37 -47 -15
-27 -49 -75 -75 -107 -26 -33 -45 -62 -42 -65 3 -3 9 0 13 7 4 7 12 12 17 11
5 -2 26 5 48 14 21 9 45 17 53 17 9 0 11 5 7 13 -4 6 23 -17 61 -51 106 -100
230 -173 395 -234 30 -11 60 -24 65 -28 6 -4 42 -17 80 -30 39 -12 101 -36
139 -53 l68 -31 -4 -63 c-2 -34 -6 -65 -9 -67 -7 -7 -134 34 -224 72 -38 16
-142 53 -230 82 -88 29 -209 72 -268 96 -59 24 -131 47 -160 50 -29 4 -66 13
-84 21 -49 20 -84 16 -115 -14 -27 -25 -37 -53 -20 -53 4 0 26 -26 50 -57 23
-32 69 -95 102 -140 33 -44 73 -109 88 -144 l28 -63 0 79 c-1 46 3 80 9 82 6
2 33 -17 60 -41 58 -53 138 -97 215 -121 30 -9 115 -40 188 -68 126 -49 132
-52 132 -79 0 -16 -7 -45 -15 -64 -15 -36 -16 -36 -59 -30 -24 4 -109 32 -188
62 -256 100 -422 166 -463 187 -81 40 -291 170 -321 198 l-30 29 -54 -48 -53
-48 96 -194 c52 -107 105 -217 115 -245 l20 -50 -1 50 -2 50 33 -2 c20 0 57
-17 93 -42 44 -29 82 -44 137 -56 94 -20 259 -72 290 -91 28 -18 29 -58 2
-101 -24 -39 -33 -40 -136 -9 -76 23 -361 133 -404 156 -13 7 -26 8 -37 2 -13
-8 -50 20 -183 144 -92 84 -181 169 -199 189 l-32 36 -43 -25 c-71 -42 -70
-38 -30 -182 20 -71 46 -163 59 -204 13 -41 29 -104 36 -140 10 -51 14 -60 19
-40 6 22 11 25 45 22 21 -2 55 -12 76 -23 21 -10 100 -35 176 -54 182 -47 275
-75 291 -87 18 -15 15 -42 -9 -72 -15 -20 -29 -26 -57 -26 -50 0 -218 54 -386
125 l-138 57 -27 -20 -28 -20 -11 33 c-7 18 -46 78 -86 133 -99 134 -169 238
-195 290 -12 23 -23 42 -25 42 -1 0 -29 -11 -62 -24 -49 -20 -59 -28 -58 -48
1 -27 45 -265 76 -418 l21 -105 41 -1 c23 -1 108 -27 189 -58 82 -31 176 -60
210 -66 60 -9 87 -27 87 -57 0 -28 -30 -83 -45 -83 -8 0 -52 19 -98 41 -45 23
-127 61 -182 84 -55 24 -124 53 -153 66 -45 20 -58 22 -91 13 -38 -10 -40 -10
-46 14 -3 13 -46 99 -95 190 -49 91 -99 198 -112 239 -12 40 -27 72 -33 69 -6
-2 -40 -12 -74 -22 l-64 -17 7 -59 c3 -33 9 -156 13 -274 4 -135 10 -217 17
-222 6 -5 67 -23 136 -41 109 -28 274 -85 320 -110 22 -12 23 -35 3 -59 l-18
-21 -56 19 c-31 11 -133 53 -227 94 -139 61 -177 74 -205 69 l-35 -5 -22 68
c-12 38 -48 137 -80 219 -32 83 -64 176 -71 208 l-14 58 -55 -7 c-105 -13 -96
9 -104 -251 -4 -125 -8 -244 -9 -263 -2 -31 2 -37 43 -60 25 -14 113 -48 195
-76 134 -46 150 -54 153 -75 6 -62 -4 -59 -298 71 -108 48 -129 54 -162 51
-21 -2 -28 3 -32 21 -7 29 -63 277 -78 342 -6 27 -16 88 -22 135 l-12 86 -72
3 c-75 3 -96 17 -39 26 17 3 106 8 197 10 247 9 334 19 425 54 44 16 114 38
155 48 112 26 465 171 395 162 -11 -2 -23 -7 -27 -12 -10 -15 -88 -7 -105 9
-13 13 -13 17 0 30 12 11 16 12 20 2 5 -15 18 -4 21 20 2 12 10 17 25 15 16
-2 21 2 21 17 0 17 6 21 34 21 39 0 59 27 24 32 -12 2 -23 8 -25 14 -3 8 12
10 46 6 43 -4 53 -1 75 21 35 35 35 85 0 126 -14 17 -34 31 -44 31 -10 0 -22
5 -25 10 -8 13 44 2 63 -13 40 -32 56 -119 29 -161 -10 -14 -14 -26 -10 -26 5
0 1 -5 -7 -10 -13 -8 -13 -10 2 -10 9 0 20 -5 23 -10 8 -13 -14 -42 -25 -35
-10 6 -25 -14 -17 -22 3 -3 18 4 34 15 15 11 51 32 78 47 60 33 76 46 46 38
-12 -3 -24 -10 -27 -15 -3 -5 -13 0 -20 11 -11 16 -12 26 -4 41 6 11 14 20 19
20 5 0 14 13 21 30 7 16 15 29 19 28 23 -3 32 5 11 12 -21 6 -17 8 28 15 63 9
75 22 29 30 -32 6 -33 7 -35 64 -1 32 2 69 7 82 8 21 10 17 10 -23 1 -56 17
-95 43 -104 29 -9 84 32 108 81 20 41 20 46 5 74 -8 17 -28 38 -43 46 -26 15
-26 16 -2 9 35 -9 69 -53 70 -90 0 -22 -13 -45 -45 -83 -25 -29 -45 -54 -45
-55 0 -2 12 -2 28 0 15 2 21 1 15 -2 -7 -3 -13 -16 -13 -28 0 -12 -6 -28 -12
-35 -28 -29 12 -3 75 49 36 30 66 60 66 67 1 6 6 15 13 19 7 5 8 3 3 -6 -20
-32 57 35 150 131 77 79 96 104 82 107 -14 3 -16 7 -6 18 8 10 8 14 0 14 -6 0
-11 7 -11 15 0 8 5 15 10 15 6 0 10 8 10 18 0 14 -4 12 -20 -8 -11 -14 -20
-33 -20 -42 0 -30 -62 -34 -112 -6 -39 21 -43 27 -46 67 -4 55 13 76 22 27 11
-58 69 -91 116 -66 24 13 60 72 60 100 0 33 -29 76 -64 93 l-31 16 27 0 c15 1
29 -3 33 -8 12 -20 73 5 119 50 16 16 33 26 38 23 4 -3 13 -2 19 2 15 9 119
16 119 9 0 -4 -5 -15 -10 -26 -22 -40 0 -15 80 92 49 66 100 151 127 208 61
131 114 221 132 221 8 0 12 3 8 6 -12 12 79 158 93 151 3 -2 16 -8 30 -14z
m949 -229 c1 -1 13 1 25 6 34 13 50 -2 42 -41 -11 -60 -20 -67 -58 -45 -84 49
-108 67 -108 82 0 13 8 14 48 8 26 -3 49 -8 51 -10z m-1297 -160 c21 -4 35 -1
50 13 15 13 19 14 14 3 -3 -8 -9 -23 -12 -32 -4 -10 -11 -18 -16 -18 -5 0 -7
-3 -4 -8 2 -4 -15 -31 -39 -60 -24 -28 -45 -58 -48 -64 -2 -7 -8 -10 -12 -5
-5 4 -3 13 3 19 19 19 14 28 -10 19 -13 -5 -22 -14 -21 -20 2 -6 -4 -8 -13 -4
-9 3 -14 0 -12 -8 2 -10 -12 -15 -55 -17 -34 -2 -56 1 -53 6 3 5 -6 20 -19 32
-25 23 -33 54 -17 64 4 2 20 -11 35 -30 39 -48 85 -48 133 0 44 44 47 96 7
138 l-26 27 24 9 c21 8 26 5 43 -24 12 -21 30 -35 48 -40z m-67 -194 c-3 -5
-12 -10 -18 -10 -7 0 -6 4 3 10 19 12 23 12 15 0z m-145 -20 c0 -5 -4 -10 -10
-10 -5 0 -10 5 -10 10 0 6 5 10 10 10 6 0 10 -4 10 -10z m-312 -91 c-97 -126
-301 -293 -548 -450 -63 -40 -131 -86 -151 -101 -46 -35 -167 -92 -239 -112
-70 -20 -104 -45 370 275 107 73 216 149 241 170 55 46 383 299 387 299 1 0
-25 -36 -60 -81z m1751 35 c5 -4 -57 -134 -64 -134 -8 0 -155 133 -155 140 0
6 212 0 219 -6z m-1632 -346 c-3 -8 -6 -5 -6 6 -1 11 2 17 5 13 3 -3 4 -12 1
-19z m1349 -59 c3 -5 14 -9 25 -9 10 0 19 -5 19 -11 0 -16 -42 -89 -52 -89
-21 0 -58 106 -42 122 7 8 43 -2 50 -13z m-1531 -127 c-3 -3 -11 0 -18 7 -9
10 -8 11 6 5 10 -3 15 -9 12 -12z m1383 -166 c10 -10 7 -20 -16 -52 -16 -22
-41 -47 -55 -57 -25 -16 -26 -16 -52 14 -36 44 -57 88 -51 106 5 13 19 15 84
9 42 -4 83 -13 90 -20z m-2241 -72 c-3 -3 -12 -4 -19 -1 -8 3 -5 6 6 6 11 1
17 -2 13 -5z m68 -54 c12 -23 14 -48 11 -96 -3 -38 -2 -63 3 -59 6 3 13 0 17
-6 5 -9 0 -10 -16 -6 -13 3 -30 1 -37 -5 -13 -10 -90 -2 -79 9 3 3 -1 11 -10
18 -13 9 -9 10 20 7 29 -3 41 1 66 26 33 34 37 56 16 107 -18 43 -12 46 9 5z
m45 -87 c0 -14 -19 -38 -25 -32 -8 8 5 39 16 39 5 0 9 -3 9 -7z m1702 -178
c34 -12 64 -27 66 -34 4 -11 -101 -121 -116 -121 -10 0 -62 163 -62 193 0 16
1 16 25 1 14 -9 54 -27 87 -39z m-1845 29 c-3 -3 -12 -4 -19 -1 -8 3 -5 6 6 6
11 1 17 -2 13 -5z m-307 -19 c-14 -17 -40 -20 -40 -6 0 8 18 16 44 20 5 0 3
-6 -4 -14z m-641 -310 c-10 -77 -26 -185 -37 -240 -39 -196 -42 -182 38 -204
25 -7 83 -30 130 -51 47 -21 110 -47 140 -57 33 -12 56 -26 58 -36 3 -15 -1
-15 -40 -3 -80 26 -262 97 -322 127 -33 16 -70 29 -83 29 -13 0 -26 6 -28 13
-7 18 -55 403 -54 430 0 17 3 15 14 -13 7 -19 14 -27 14 -17 1 16 3 16 31 2
16 -8 37 -15 46 -15 16 0 16 2 -2 16 -20 16 -13 16 31 -2 8 -3 15 -1 15 5 0 6
6 8 14 5 10 -4 14 11 18 61 3 36 11 72 18 80 7 9 14 14 15 13 1 -2 -6 -66 -16
-143z m2414 -20 c42 -10 77 -21 77 -25 0 -13 -56 -59 -83 -69 -47 -18 -53 -14
-76 48 -24 68 -25 75 -8 68 6 -2 47 -12 90 -22z m-2959 -177 c-18 -103 -19
-101 29 -119 280 -109 306 -122 294 -153 -9 -22 -18 -19 -182 56 -119 55 -171
77 -201 84 -16 4 -29 133 -15 147 8 8 11 4 12 -13 l0 -25 10 25 c11 26 48 70
59 70 3 0 1 -33 -6 -72z m3076 38 c0 -3 -15 -14 -32 -26 l-33 -22 30 26 c31
27 35 29 35 22z m150 -45 c0 -20 -194 -154 -318 -220 -38 -20 -23 3 18 29 22
13 40 28 40 32 0 4 7 8 15 8 9 0 28 8 43 18 15 10 36 23 47 29 11 6 19 16 17
23 -1 6 2 9 8 5 10 -6 22 1 66 43 14 12 31 22 39 22 8 0 15 5 15 10 0 6 2 10
5 10 3 0 5 -4 5 -9z m-220 -5 c0 -2 -8 -10 -17 -17 -16 -13 -17 -12 -4 4 13
16 21 21 21 13z m-85 -62 c-26 -20 -55 -36 -55 -30 0 5 63 46 70 46 3 -1 -4
-8 -15 -16z m-442 -19 c20 -8 39 -20 43 -26 11 -19 -44 -61 -75 -57 -23 3 -27
8 -31 51 -7 54 1 58 63 32z m396 -149 c-2 -2 -15 -9 -29 -16 -23 -12 -24 -12
-11 3 7 10 20 17 29 17 8 0 13 -2 11 -4z m-853 -32 c30 -8 54 -19 54 -24 0
-15 -42 -37 -82 -43 -31 -5 -38 -2 -43 14 -7 21 1 69 11 69 3 0 30 -7 60 -16z
m-478 -100 c36 -16 37 -17 12 -24 -14 -5 -46 -8 -72 -9 -45 -1 -48 1 -48 24 0
22 4 25 35 25 20 0 52 -7 73 -16z"/>
<path d="M7512 4735 c0 -16 2 -22 5 -12 2 9 2 23 0 30 -3 6 -5 -1 -5 -18z"/>
<path d="M7228 4713 c7 -3 16 -2 19 1 4 3 -2 6 -13 5 -11 0 -14 -3 -6 -6z"/>
<path d="M6925 4450 c-19 -38 -35 -72 -35 -75 0 -15 31 -1 67 30 41 35 53 75
31 103 -18 22 -27 13 -63 -58z"/>
<path d="M7133 3900 c0 -25 2 -35 4 -22 2 12 2 32 0 45 -2 12 -4 2 -4 -23z"/>
<path d="M6260 3820 c0 -5 5 -10 11 -10 5 0 7 5 4 10 -3 6 -8 10 -11 10 -2 0
-4 -4 -4 -10z"/>
<path d="M6455 3784 c-9 -15 -12 -23 -6 -20 11 7 35 46 28 46 -3 0 -12 -12
-22 -26z"/>
<path d="M6381 3691 c-17 -21 -31 -42 -31 -46 0 -6 20 17 59 68 7 9 11 17 8
17 -3 0 -19 -18 -36 -39z"/>
<path d="M6214 3428 l-29 -33 33 29 c17 17 32 31 32 33 0 8 -8 1 -36 -29z"/>
<path d="M5994 3239 c-19 -22 -19 -22 4 -10 12 6 22 16 22 21 0 15 -5 12 -26
-11z"/>
<path d="M5930 3189 c-19 -17 -26 -26 -15 -20 30 16 59 40 54 45 -2 3 -20 -9
-39 -25z"/>
<path d="M5865 3130 c-8 -13 12 -40 29 -40 6 0 4 6 -5 13 -9 7 -14 18 -12 25
6 15 -3 16 -12 2z"/>
<path d="M5641 2983 c-70 -42 -92 -65 -28 -29 26 15 47 24 47 20 0 -3 9 4 19
17 21 26 19 29 41 -44 7 -21 14 -37 16 -35 5 6 -21 87 -31 96 -6 5 -33 -5 -64
-25z"/>
<path d="M5514 2985 c-10 -8 -14 -15 -8 -15 6 0 17 7 24 15 16 19 9 19 -16 0z"/>
<path d="M5536 2915 c4 -8 8 -15 10 -15 2 0 4 7 4 15 0 8 -4 15 -10 15 -5 0
-7 -7 -4 -15z"/>
<path d="M5741 2884 c0 -11 3 -14 6 -6 3 7 2 16 -1 19 -3 4 -6 -2 -5 -13z"/>
<path d="M9700 6050 c0 -5 5 -10 10 -10 6 0 10 5 10 10 0 6 -4 10 -10 10 -5 0
-10 -4 -10 -10z"/>
<path d="M9680 6041 c0 -7 -5 -9 -12 -5 -7 5 -8 3 -3 -5 5 -9 10 -10 18 -2 6
6 8 14 4 18 -4 3 -7 1 -7 -6z"/>
<path d="M8694 5871 c3 -18 6 -40 6 -48 0 -8 4 -12 9 -9 5 3 5 22 1 42 -11 46
-25 60 -16 15z"/>
<path d="M9584 5647 c-25 -18 -156 -129 -174 -147 -3 -3 -50 -45 -105 -94 -55
-49 -149 -137 -210 -195 -60 -59 -139 -131 -175 -161 -36 -30 -67 -57 -70 -60
-3 -3 -40 -36 -83 -74 l-78 -69 3 -77 3 -78 50 43 c77 66 125 122 119 138 -3
8 2 22 11 31 11 11 15 25 11 41 -5 18 -1 27 13 35 12 6 18 18 16 29 -3 15 6
23 36 35 21 9 38 22 37 28 -2 7 5 12 14 10 12 -2 16 3 13 19 -3 15 0 19 11 15
8 -3 13 -2 10 2 -9 14 40 61 69 66 16 3 35 12 41 21 10 14 13 13 25 -2 12 -14
12 -16 0 -8 -10 5 -12 4 -7 -3 5 -9 13 -9 26 -2 10 5 28 10 39 10 15 0 19 4
14 17 -4 11 -3 14 5 9 15 -9 94 63 85 77 -3 6 -1 7 4 4 6 -4 52 33 102 81 l91
87 -21 39 c-16 30 -18 41 -8 47 7 4 17 5 24 3 13 -6 41 23 32 33 -4 3 10 21
31 39 42 38 41 43 -4 11z m-449 -436 c-3 -6 -11 -11 -17 -11 -6 0 -6 6 2 15
14 17 26 13 15 -4z"/>
<path d="M9073 5548 c-93 -73 -265 -227 -310 -277 -28 -30 -33 -43 -32 -81 1
-28 3 -35 6 -20 3 14 10 31 16 39 9 12 9 13 0 7 -9 -5 -11 -2 -7 7 3 8 13 13
23 10 12 -3 20 2 24 16 3 13 14 21 29 22 16 1 18 3 6 6 -16 4 -16 6 -1 29 9
14 22 23 29 20 9 -4 14 2 15 17 0 12 3 17 5 10 4 -7 22 -1 55 20 44 27 53 29
71 18 18 -11 26 -7 74 41 30 29 53 60 53 68 -1 13 -1 13 -6 0 -7 -17 -23 -30
-38 -30 -5 0 -4 4 2 8 7 4 14 19 16 32 5 30 24 37 40 15 12 -15 14 -14 32 7
11 12 13 17 5 11 -12 -9 -19 -8 -34 2 -18 13 -18 16 -2 40 9 14 14 25 12 25
-3 0 -40 -28 -83 -62z"/>
<path d="M9230 5590 c-9 -6 -10 -10 -3 -10 6 0 15 5 18 10 8 12 4 12 -15 0z"/>
<path d="M8930 5356 c0 -7 40 -14 44 -7 3 4 -6 8 -20 9 -13 1 -24 0 -24 -2z"/>
<path d="M1020 5154 c-50 -45 -52 -74 -9 -114 51 -46 78 -48 116 -6 45 49 44
84 -2 125 -20 17 -42 31 -50 31 -8 0 -33 -16 -55 -36z"/>
<path d="M9200 5179 c0 -5 5 -7 10 -4 6 3 10 8 10 11 0 2 -4 4 -10 4 -5 0 -10
-5 -10 -11z"/>
<path d="M755 5139 c-19 -17 -35 -39 -35 -48 0 -19 45 -64 73 -74 24 -9 72 17
93 48 14 21 14 30 4 55 -24 59 -81 66 -135 19z"/>
<path d="M541 5126 c-29 -31 -22 -68 15 -93 26 -17 27 -16 55 15 30 34 37 70
17 90 -20 20 -63 14 -87 -12z"/>
<path d="M6549 5103 c-13 -16 -12 -17 4 -4 9 7 17 15 17 17 0 8 -8 3 -21 -13z"/>
<path d="M9120 5104 c0 -8 5 -12 10 -9 6 4 8 11 5 16 -9 14 -15 11 -15 -7z"/>
<path d="M9085 5070 c-3 -6 1 -7 9 -4 18 7 21 14 7 14 -6 0 -13 -4 -16 -10z"/>
<path d="M9040 5035 c0 -8 2 -15 4 -15 2 0 6 7 10 15 3 8 1 15 -4 15 -6 0 -10
-7 -10 -15z"/>
<path d="M6405 4999 c-64 -52 -66 -55 -30 -36 26 13 97 78 84 77 -2 -1 -26
-19 -54 -41z"/>
<path d="M9210 4895 c-7 -8 -8 -15 -2 -15 5 0 15 7 22 15 7 8 8 15 2 15 -5 0
-15 -7 -22 -15z"/>
<path d="M9340 4605 c-7 -9 -8 -15 -2 -15 5 0 12 7 16 15 3 8 4 15 2 15 -2 0
-9 -7 -16 -15z"/>
<path d="M8837 4570 c-14 -16 -29 -30 -34 -30 -15 -1 -203 -185 -203 -200 0
-9 7 -5 17 10 22 32 45 50 57 43 5 -4 6 -2 3 4 -4 5 15 22 41 36 26 15 40 27
33 27 -9 0 2 15 24 35 21 20 45 33 52 31 8 -4 11 -1 8 5 -8 12 24 51 36 43 5
-3 6 2 3 10 -8 21 -8 21 -37 -14z"/>
<path d="M9270 4548 c-191 -171 -220 -201 -209 -214 14 -17 -2 -18 -20 -1 -11
10 -12 7 -6 -13 4 -17 3 -21 -3 -11 -8 11 -13 10 -30 -5 -25 -21 -19 -38 9
-23 18 9 19 8 7 -10 -6 -11 -15 -18 -19 -15 -4 2 -9 -1 -11 -8 -3 -7 -12 -9
-22 -5 -16 6 -16 10 -5 25 11 14 9 13 -9 -2 -23 -20 -30 -32 -12 -21 6 3 10 2
10 -3 0 -6 -12 -13 -27 -17 -15 -3 -41 -21 -58 -38 -17 -18 -35 -33 -39 -34
-10 -2 -101 -83 -94 -83 4 0 18 4 32 10 17 6 35 6 52 0 16 -7 23 -7 19 0 -3 6
-2 10 4 10 19 0 20 -18 2 -39 -10 -11 -23 -21 -30 -21 -6 0 -11 -7 -11 -15 0
-8 -4 -15 -10 -15 -5 0 -10 -5 -10 -11 0 -6 34 20 76 58 199 177 319 292 316
303 -1 6 2 9 8 5 14 -9 43 22 34 36 -5 8 -3 9 5 4 15 -9 83 53 74 68 -3 6 -1
7 4 4 6 -4 25 6 42 22 31 29 44 54 16 31 -20 -16 -38 -2 -32 26 8 42 -8 43
-53 2z m-160 -186 c0 -4 -9 -8 -19 -8 -15 0 -17 3 -9 13 10 12 28 9 28 -5z m3
-57 c-3 -9 -8 -14 -10 -11 -3 3 -2 9 2 15 9 16 15 13 8 -4z m-88 -84 c-3 -6
-14 -11 -23 -11 -13 0 -13 2 4 14 21 15 30 14 19 -3z m-41 -42 c-3 -5 -10 -7
-15 -3 -5 3 -7 10 -3 15 3 5 10 7 15 3 5 -3 7 -10 3 -15z"/>
<path d="M1290 4311 c-5 -11 -10 -27 -10 -35 0 -9 -6 -16 -13 -16 -25 0 -183
-233 -171 -252 4 -7 2 -8 -5 -4 -7 5 -13 -3 -17 -23 -4 -17 -10 -28 -15 -25
-5 3 -9 -4 -9 -16 0 -11 -9 -28 -19 -37 -17 -14 -17 -18 -5 -30 10 -10 11 -20
4 -32 -5 -10 -6 -21 -3 -25 4 -3 7 -79 8 -169 1 -176 19 -260 64 -308 12 -13
34 -44 48 -69 25 -42 89 -109 106 -110 11 0 9 28 -3 35 -5 3 -20 38 -32 78
-20 64 -23 91 -22 242 1 157 4 180 33 290 17 66 52 162 76 213 25 52 45 106
45 120 0 43 -32 192 -41 192 -5 0 -13 -9 -19 -19z"/>
<path d="M9195 4074 c-22 -20 -39 -40 -37 -46 1 -5 -2 -7 -6 -4 -5 3 -19 -3
-30 -13 -19 -15 -20 -23 -12 -52 6 -19 10 -35 10 -36 0 -2 -11 -3 -24 -3 -19
0 -23 -4 -19 -20 4 -14 0 -20 -10 -20 -19 0 -31 -16 -18 -24 8 -5 56 34 166
134 48 44 75 79 65 85 -6 4 -10 0 -10 -7 0 -10 -3 -9 -11 2 -8 11 -9 9 -3 -10
6 -21 5 -23 -8 -12 -9 7 -24 10 -34 6 -11 -3 -15 -2 -8 3 10 8 38 53 32 53 -2
-1 -21 -17 -43 -36z"/>
<path d="M8584 3947 c-50 -45 -95 -91 -100 -102 -6 -11 -9 -13 -7 -5 4 23 -96
-90 -118 -132 -22 -43 -26 -69 -7 -50 14 14 62 16 53 2 -3 -6 1 -7 10 -4 14 6
14 8 -2 21 -10 8 -12 12 -5 8 6 -3 12 -2 12 2 0 5 10 14 23 22 20 13 21 13 8
-2 -7 -10 -10 -17 -7 -17 11 0 76 54 76 64 0 5 -6 4 -13 -3 -10 -8 -16 -8 -25
1 -12 12 0 52 23 78 13 15 15 19 15 40 0 6 8 10 18 10 9 0 23 9 30 20 7 11 27
29 45 40 18 11 28 20 23 20 -5 0 3 12 18 26 21 22 34 45 24 44 -2 -1 -44 -38
-94 -83z"/>
<path d="M1357 3924 c-71 -141 -80 -187 -74 -368 6 -177 16 -226 74 -339 46
-92 103 -147 176 -171 l58 -20 22 22 21 22 -18 88 c-9 48 -26 145 -36 215 -12
82 -32 165 -56 230 -20 56 -54 158 -76 227 -59 185 -50 176 -91 94z"/>
<path d="M8708 3931 c-18 -16 -30 -32 -27 -35 3 -3 21 10 39 29 41 42 33 46
-12 6z"/>
<path d="M9065 3950 c-3 -5 -1 -10 4 -10 6 0 11 5 11 10 0 6 -2 10 -4 10 -3 0
-8 -4 -11 -10z"/>
<path d="M8615 3844 c-22 -20 -49 -42 -59 -50 -11 -7 -18 -16 -15 -18 3 -3 32
19 64 49 33 30 58 54 55 55 -3 0 -23 -16 -45 -36z"/>
<path d="M8820 3768 c-47 -38 -119 -100 -160 -137 -41 -37 -111 -96 -155 -131
-44 -35 -125 -102 -180 -150 -55 -47 -128 -108 -163 -134 -59 -45 -162 -157
-162 -176 0 -4 -28 -46 -61 -92 -34 -45 -53 -76 -43 -67 10 8 93 74 184 145
91 71 227 182 302 246 76 65 170 143 210 174 106 81 317 278 302 282 -7 2 -10
10 -7 18 3 8 1 14 -5 14 -11 0 -11 18 2 38 6 10 11 9 21 -4 11 -16 12 -15 10
10 -2 15 -5 29 -7 31 -2 1 -41 -29 -88 -67z"/>
<path d="M9015 3830 c4 -6 11 -8 16 -5 14 9 11 15 -7 15 -8 0 -12 -5 -9 -10z"/>
<path d="M8970 3790 c-8 -5 -12 -12 -9 -15 4 -3 12 1 19 10 14 17 11 19 -10 5z"/>
<path d="M8916 3751 c-4 -5 3 -7 14 -4 23 6 26 13 6 13 -8 0 -17 -4 -20 -9z"/>
<path d="M8296 3568 l-17 -33 20 24 c18 20 27 41 18 41 -1 0 -11 -15 -21 -32z"/>
<path d="M8598 3218 c-37 -29 -66 -54 -63 -56 5 -5 46 25 105 77 54 47 32 36
-42 -21z"/>
<path d="M8503 3143 c-15 -5 -17 -23 -4 -23 5 0 11 7 15 15 3 8 4 15 3 14 -1
0 -8 -3 -14 -6z"/>
<path d="M8463 3113 c-15 -5 -17 -23 -4 -23 5 0 11 7 15 15 3 8 4 15 3 14 -1
0 -8 -3 -14 -6z"/>
<path d="M3200 3090 c-8 -5 -10 -10 -5 -10 6 0 17 5 25 10 8 5 11 10 5 10 -5
0 -17 -5 -25 -10z"/>
<path d="M8525 3070 c-3 -6 1 -7 9 -4 18 7 21 14 7 14 -6 0 -13 -4 -16 -10z"/>
<path d="M8342 3014 c-7 -8 -8 -14 -3 -14 10 0 25 19 20 25 -2 1 -10 -3 -17
-11z"/>
<path d="M8460 3019 c0 -5 5 -7 10 -4 6 3 10 8 10 11 0 2 -4 4 -10 4 -5 0 -10
-5 -10 -11z"/>
<path d="M8430 3000 c-9 -6 -10 -10 -3 -10 6 0 15 5 18 10 8 12 4 12 -15 0z"/>
<path d="M8257 2947 c-52 -46 -58 -59 -24 -50 12 3 30 6 39 6 12 1 16 7 12 19
-4 13 2 19 20 24 29 7 28 6 20 28 -9 22 -13 21 -67 -27z"/>
<path d="M8334 2937 c-23 -24 -38 -47 -31 -47 3 0 24 16 47 35 30 25 37 35 23
34 -10 0 -27 -10 -39 -22z"/>
<path d="M8463 2858 c-33 -24 -73 -80 -73 -102 0 -8 7 -22 16 -30 14 -14 19
-14 52 3 20 11 52 34 69 53 31 32 32 35 17 56 -26 38 -47 43 -81 20z"/>
<path d="M8040 2710 c0 -5 5 -10 11 -10 5 0 7 5 4 10 -3 6 -8 10 -11 10 -2 0
-4 -4 -4 -10z"/>
<path d="M1031 2303 c0 -6 -4 -20 -7 -30 -5 -14 -4 -15 5 -7 7 7 11 20 8 30
-3 11 -5 14 -6 7z"/>
<path d="M2598 2093 c7 -3 16 -2 19 1 4 3 -2 6 -13 5 -11 0 -14 -3 -6 -6z"/>
<path d="M2015 1211 c-54 -24 -75 -58 -75 -120 0 -45 4 -55 40 -92 l40 -42 64
5 c35 3 69 9 75 12 6 4 11 35 11 69 l0 62 -45 -3 c-30 -3 -45 -9 -45 -18 0 -8
9 -14 20 -14 25 0 28 -45 3 -54 -23 -9 -81 12 -93 34 -15 28 -12 72 6 98 16
23 58 30 69 12 14 -22 75 -4 75 22 0 9 -46 33 -80 41 -15 4 -42 -1 -65 -12z"/>
<path d="M4820 1148 l0 -80 -23 29 c-13 15 -38 49 -56 76 -24 35 -38 47 -57
47 l-25 0 3 -127 c3 -123 4 -128 25 -131 21 -3 22 1 25 74 l3 78 55 -75 c36
-49 62 -74 75 -74 19 0 20 8 23 126 l3 127 -26 4 -25 5 0 -79z"/>
<path d="M4970 1096 l0 -136 25 0 c25 0 25 1 25 80 l0 81 63 -78 c91 -113 95
-111 99 44 2 70 3 129 3 130 -1 2 -12 4 -24 5 -23 3 -24 1 -22 -77 1 -66 -1
-77 -11 -64 -7 8 -35 43 -62 77 -27 34 -52 62 -57 62 -4 0 -14 3 -23 6 -14 5
-16 -10 -16 -130z"/>
<path d="M5314 1186 c-74 -74 -62 -165 28 -212 53 -28 111 -8 147 49 39 63 18
148 -44 187 -51 32 -81 26 -131 -24z m126 -42 c26 -69 1 -124 -56 -124 -38 0
-55 23 -57 76 -1 44 27 74 70 74 27 0 35 -5 43 -26z"/>
<path d="M6090 1198 c0 -25 3 -28 35 -28 l35 0 0 -100 0 -100 25 0 25 0 0 100
0 100 35 0 c30 0 35 3 35 24 0 24 -2 25 -95 28 l-95 3 0 -27z"/>
<path d="M7200 1212 c-75 -40 -58 -116 31 -138 38 -9 44 -15 47 -39 4 -30 3
-30 -89 -9 -20 4 -28 1 -33 -12 -9 -24 15 -41 71 -50 57 -8 89 6 110 50 15 32
15 37 0 60 -11 15 -34 30 -64 38 -37 10 -49 19 -51 36 -3 21 0 22 54 20 63 -3
80 11 42 35 -41 26 -80 29 -118 9z"/>
<path d="M8118 1215 c-56 -32 -85 -123 -57 -178 6 -12 23 -34 37 -49 35 -38
98 -39 139 -4 27 24 27 26 10 43 -16 17 -18 17 -47 0 -34 -21 -60 -12 -86 28
-36 55 48 149 93 104 8 -8 17 -8 32 0 27 15 27 27 -3 46 -35 23 -87 28 -118
10z"/>
<path d="M2267 1094 l2 -126 88 -1 c83 -2 88 -1 91 19 4 25 -19 34 -85 34 -39
0 -43 2 -43 25 0 23 3 25 50 25 43 0 50 3 50 20 0 17 -7 20 -50 20 -49 0 -50
1 -50 30 0 30 0 30 59 30 50 0 59 3 64 19 3 11 2 22 -1 25 -3 3 -44 6 -91 6
l-86 0 2 -126z"/>
<path d="M2603 1203 c-3 -10 -23 -62 -45 -116 -42 -108 -47 -132 -22 -123 9 3
21 6 29 6 7 0 15 9 18 20 4 17 14 20 56 20 44 0 51 -3 56 -23 5 -18 13 -23 38
-23 l33 0 -53 126 c-46 110 -55 125 -78 128 -17 2 -27 -2 -32 -15z m51 -105
l15 -38 -31 0 c-29 0 -30 2 -24 31 3 17 6 39 6 47 0 23 15 4 34 -40z"/>
<path d="M2840 1096 c0 -69 3 -126 8 -127 4 0 15 -2 25 -4 14 -3 17 4 17 42 0
40 2 44 22 41 13 -2 34 -21 51 -45 24 -37 33 -43 63 -43 l35 0 -35 44 c-20 23
-36 46 -36 51 0 4 11 16 25 27 32 25 33 68 1 105 -21 25 -31 28 -100 31 l-76
4 0 -126z m133 54 c5 -4 6 -17 2 -29 -5 -17 -15 -21 -46 -21 -36 0 -39 2 -39
29 0 16 6 32 13 35 15 6 59 -2 70 -14z"/>
<path d="M3152 1200 c-54 -50 -28 -111 55 -132 49 -12 60 -23 43 -43 -15 -18
-53 -19 -79 -3 -22 14 -51 4 -51 -16 0 -22 52 -46 98 -46 68 0 120 76 83 121
-9 11 -38 26 -66 33 -38 9 -50 17 -50 32 0 16 7 19 54 19 60 0 75 14 39 39
-32 23 -99 21 -126 -4z"/>
<path d="M3408 1090 l3 -130 25 0 c22 0 24 4 24 50 l0 50 40 2 c22 1 48 2 57
2 14 1 16 -8 14 -58 -2 -51 0 -58 14 -52 9 3 20 6 25 6 11 0 24 191 15 229 -5
24 -12 31 -30 31 -22 0 -24 -5 -27 -52 l-3 -53 -50 0 -50 0 -3 53 c-3 49 -5
52 -30 52 l-27 0 3 -130z"/>
<path d="M3730 1090 c0 -131 0 -131 23 -128 21 3 22 6 22 128 0 122 -1 125
-22 128 -23 3 -23 3 -23 -128z"/>
<path d="M3880 1090 l0 -130 24 0 c21 0 24 6 30 49 l7 50 42 3 c35 2 43 7 45
26 3 20 -1 22 -41 22 -32 0 -47 5 -51 16 -15 38 -8 44 54 44 57 0 60 1 60 25
0 25 -1 25 -85 25 l-85 0 0 -130z"/>
<path d="M4100 1211 c0 -28 14 -41 46 -41 l34 0 0 -104 0 -103 25 5 c25 4 25
6 25 104 l0 100 35 -4 c33 -4 35 -2 35 24 l0 28 -100 0 c-55 0 -100 -4 -100
-9z"/>
<path d="M4520 1095 l0 -125 25 0 25 0 0 125 0 125 -25 0 -25 0 0 -125z"/>
<path d="M5578 1215 c-7 -7 28 -108 63 -181 28 -59 52 -83 64 -64 5 7 60 165
82 233 4 13 0 17 -20 17 -22 0 -28 -8 -47 -67 -34 -106 -35 -106 -68 -33 -16
36 -32 73 -36 83 -5 16 -27 23 -38 12z"/>
<path d="M5900 1208 c0 -8 -15 -52 -34 -98 -19 -47 -37 -97 -40 -112 -6 -25
-4 -28 19 -28 18 0 26 7 31 25 6 23 11 25 60 25 48 0 54 -2 60 -24 3 -15 16
-27 31 -31 45 -11 45 -14 -41 190 -22 53 -28 60 -55 63 -21 2 -31 -1 -31 -10z
m58 -103 l22 -45 -35 0 c-30 0 -35 3 -35 23 0 29 11 67 19 67 3 0 16 -21 29
-45z"/>
<path d="M6370 1095 l0 -125 25 0 c29 0 29 5 19 158 -6 81 -9 92 -25 92 -18 0
-19 -10 -19 -125z"/>
<path d="M6554 1186 c-30 -30 -34 -40 -34 -85 0 -86 43 -141 111 -141 25 0 42
10 76 45 36 38 43 52 43 86 0 78 -47 129 -121 129 -33 0 -47 -6 -75 -34z m113
-24 c23 -15 34 -63 22 -99 -21 -65 -89 -70 -115 -8 -19 45 -18 48 12 84 25 30
56 39 81 23z"/>
<path d="M7010 1134 l0 -86 -33 48 c-65 97 -80 114 -104 114 -23 0 -23 -1 -23
-120 l0 -120 25 0 c23 0 24 3 27 70 l3 70 50 -70 c41 -56 55 -69 78 -70 l27 0
0 125 0 125 -25 0 c-25 0 -25 -1 -25 -86z"/>
<path d="M7574 1184 c-10 -52 4 -206 19 -216 33 -21 37 -10 37 122 l0 130 -25
0 c-20 0 -25 -6 -31 -36z"/>
<path d="M7740 1095 c0 -118 1 -125 20 -125 18 0 20 7 21 58 1 31 1 63 0 70
-4 26 16 9 72 -63 37 -49 64 -75 77 -75 19 0 20 7 20 130 l0 130 -25 0 c-23 0
-24 -3 -27 -72 l-3 -72 -58 72 c-36 45 -65 72 -77 72 -19 0 -20 -8 -20 -125z"/>
<path d="M8334 1005 c-10 -25 4 -45 30 -45 26 0 52 32 41 50 -10 16 -65 12
-71 -5z"/>
</g>
</svg>
